<?xml version="1.0" standalone="no"?>
<!DOCTYPE svg PUBLIC "-//W3C//DTD SVG 1.1//EN" "http://www.w3.org/Graphics/SVG/1.1/DTD/svg11.dtd" >
<svg xmlns="http://www.w3.org/2000/svg" xmlns:xlink="http://www.w3.org/1999/xlink" version="1.1">
<metadata></metadata>
<defs>
<font id="tragic_markerregular" horiz-adv-x="903" >
<font-face units-per-em="2048" ascent="1565" descent="-483" />
<missing-glyph horiz-adv-x="600" />
<glyph horiz-adv-x="0" />
<glyph horiz-adv-x="682" />
<glyph horiz-adv-x="0" />
<glyph unicode="&#x9;" horiz-adv-x="600" />
<glyph unicode=" "  horiz-adv-x="600" />
<glyph unicode="&#x09;" horiz-adv-x="600" />
<glyph unicode="&#xa0;" horiz-adv-x="600" />
<glyph unicode="!" horiz-adv-x="477" d="M63.5 1081q-3.5 -207 25.5 -414.5t85 -265.5q11 -8 36.5 -15.5t57.5 -7.5t60 9.5t43.5 41.5t7.5 83q-31 160 -42 272.5t-11 325.5q-1 42 -2 111v52t-1.5 42.5t-3.5 37t-7 28.5t-11.5 24t-16.5 16.5t-23 12.5t-31 5.5t-39.5 3t-49.5 -2.5q-37 -23 -47 -70 q-27 -82 -30.5 -289zM186 154q-14 -43 30 -97t132 -49q43 11 66.5 41t23 59t-5.5 52q-7 34 -43 58.5t-79.5 29t-84.5 -9.5q-23 -6 -28 -17.5t-11 -66.5z" />
<glyph unicode="&#x22;" horiz-adv-x="624" d="M78 1235q-8 -153 30 -223q30 -55 70 -9q71 82 117 420q0 10 -19 29.5t-46.5 35.5t-55.5 23.5t-50.5 -11t-27.5 -64.5q-15 -135 -18 -201zM381 1231q-8 -153 30 -223q31 -56 70 -10q71 81 117 419q0 13 -28.5 38t-63.5 43t-67 4.5t-38 -70.5q-1 -11 -6.5 -49.5t-8.5 -73.5 t-5 -78z" />
<glyph unicode="#" horiz-adv-x="1097" d="M84 844q-3 -37 14 -55t44 -17.5t55 6.5t47 14l20 9q10 -4 8.5 -38t-14.5 -38q-107 -68 -131.5 -86.5t-24.5 -32.5q0 -23 16 -43.5t44 -30.5q17 -6 49.5 1.5t56.5 18.5l23 11q6 -28 6 -57q9 -99 42 -140.5t101 -41.5q84 0 70 127q0 25 -9 116.5t-9 94.5q102 49 102 55 q2 0 9 -20.5t17 -49.5t21.5 -58t23 -47.5t19.5 -15.5q39 -27 76 -24.5t67 30.5q8 13 7.5 25.5t-13.5 76.5q-1 7 -2 11q-24 115 -24 150q2 0 11 4t23.5 9.5t28.5 8.5q48 20 68 44.5t16 44.5t-22 38q-6 7 -16.5 10t-18.5 3.5t-30 -0.5t-36 -1q-42 0 -49.5 3t-7.5 18l-1 17 q-1 18 0.5 27.5t6.5 12.5q101 36 199 58q17 4 43.5 8.5t35 7t20 11.5t13.5 25t0 44q-10 17 -38 28t-88.5 10.5t-139.5 -22.5l-78 -22q-3 0 -4.5 6t-3.5 17.5t-4 19.5q-5 74 -35.5 107.5t-93.5 33.5q-25 0 -33.5 -2.5t-17.5 -13.5q-13 -10 -15.5 -26t2.5 -73q0 -11 7.5 -57 t3 -72t-30.5 -30q-38 -22 -45 -16t-12 63q-4 89 -18 126t-48 52q-25 11 -59 11t-43 -11q-15 -31 -21 -69t-6 -136q0 -110 -2.5 -128.5t-22.5 -33.5q-16 -8 -46.5 -17t-50.5 -15.5t-36 -25.5t-16 -48zM469 858.5q-1 14.5 1.5 30t8.5 18.5q70 35 76 35q5 0 7.5 -28t-1.5 -33 q-5 -5 -42.5 -21t-45.5 -16q-3 0 -4 14.5z" />
<glyph unicode="$" horiz-adv-x="997" d="M73.5 852q-11.5 -38 2.5 -72q20 -62 86 -86t190 -18q68 0 80.5 -5t16.5 -34l4.5 -19.5t3 -14.5t-0.5 -11t-3 -7t-7 -5.5t-11 -3.5t-17 -2.5t-21.5 -1.5t-28 -2t-34.5 -3q-20 -4 -17.5 -35t17.5 -51q13 -16 31 -25t59 -20q29 -6 34.5 -14.5t10.5 -54.5q0 -60 16 -91.5 t56 -62.5q25 -11 70 -11t59 11q27 35 6 76q-3 4 -5 15.5t-4.5 34.5t-4.5 36q0 57 6 69.5t39 22.5q62 17 124 46t76 46l12 9q12 8 21.5 20.5t18 32t4.5 50t-23 66.5q-66 78 -233 90q-42 4 -56 9t-18.5 14t-7.5 39q0 17 -3.5 58t-3.5 57q-5 46 3 56.5t55 20.5q10 3 26.5 8 t23.5 6.5t18.5 3.5t21 1.5t20.5 -2.5q55 -25 81 4q24 28 -5 74q-15 24 -43 45q-45 31 -209 10q-12 41 -12 74q-4 53 -17 77t-46 52q-74 39 -111 -29q-9 -25 -11.5 -47.5t-2.5 -91.5q0 -77 -3.5 -91.5t-27.5 -31.5q-146 -86 -252 -201q-42 -52 -53.5 -90zM301 827 q-30 14 54 79q56 43 69 44q6 -14 6 -37v-61q0 -19 -44.5 -31t-84.5 6zM640.5 681q-0.5 5 2.5 7.5t6.5 3t13.5 1.5t19 3q86 18 86 -14q-7 -17 -35.5 -31.5t-54.5 -20t-29 -1.5q-6 14 -6 37q-2 10 -2.5 15z" />
<glyph unicode="%" horiz-adv-x="1421" d="M99 887.5q12 -64.5 65 -103.5q37 -27 99 -34t132 8t142.5 69t121.5 140q16 26 25 69t-3.5 103.5t-55.5 105.5q-120 129 -279 70q-16 -35 -24 -35q-29 0 -72 -38t-80 -98t-60 -126t-11 -130.5zM273 996q13 48 50 86.5t77 63t51 21.5q3 -3 7.5 -8.5t13.5 -23.5t12 -38 t-3 -51.5t-24 -64.5q-19 -40 -74 -70.5t-80 -5.5q-43 43 -30 91zM469 158q-5 -35 18 -77.5t70.5 -61t120.5 33.5q23 17 34.5 48.5t43.5 168.5q4 18 35.5 154.5t52.5 215t86 280t157 456.5q5 17 -14 47.5t-57.5 43.5t-102.5 -29q-29 -22 -123 -244t-147 -393 q-68 -201 -121 -396.5t-53 -246.5zM832 327.5q-3 -36.5 1.5 -82.5t25.5 -91.5t53.5 -81t91.5 -51.5t135 -3q29 2 62.5 11.5t73 28t70 49.5t50.5 70.5t17.5 97.5t-30.5 126q-22 22 -34.5 33.5t-57 40t-86.5 40.5t-109.5 13t-138.5 -22q-27 -14 -59.5 -49t-52.5 -74 q-9 -19 -12 -55.5zM1032.5 286.5q0.5 24.5 18.5 51t53 45.5q16 -8 43 -16q58 -26 68 -55t-23 -68q-20 -20 -68.5 -38.5t-62.5 -12.5q-3 0 -11 13t-13 34.5t-4.5 46z" />
<glyph unicode="&#x26;" horiz-adv-x="964" d="M57 334q-1 -27 3.5 -57.5t16.5 -67t32.5 -67.5t52.5 -60.5t76.5 -45.5t103 -21.5t133.5 10.5q25 0 52 2.5t44 5t19 2.5q12 6 22 -7t35 -65q2 -6 8 -25t11 -33.5t17 -31.5t26 -25t38 -7t54 16q19 4 18.5 31t-24.5 118q-25 73 -23.5 94t37.5 66q27 29 53.5 78.5t45 110 t10 126.5t-49.5 113q-28 28 -65.5 47.5t-72.5 26t-65 3.5t-48.5 -19t-18.5 -42q6 -28 29 -51t53 -29t38.5 -26.5t2.5 -61.5q-7 -33 -22.5 -70.5t-26.5 -37.5q-123 334 -172 438q8 25 24 43q43 47 148 215q86 209 -33 336q-44 47 -130 67t-155 -6q-52 -21 -80.5 -44.5 t-52.5 -67.5q-71 -131 0 -375q4 -13 11 -36q21 -70 18 -89q-3 -14 -26 -49q-2 -3 -3 -4q-14 -15 -36 -49.5t-52 -91t-52 -134t-24 -153.5zM250 302.5q-4 35.5 1.5 79.5t19 87t40 75.5t60.5 41.5q14 -46 39 -99q63 -143 91.5 -213.5t22.5 -70.5q-8 -1 -21.5 -3t-50.5 -3 t-68.5 2t-65.5 16.5t-52 36.5q-12 15 -16 50.5zM393 1081q-12 106 41 179q55 61 66 8q25 -94 -66 -221q-17 -31 -25 -31q-10 1 -16 65z" />
<glyph unicode="'" horiz-adv-x="321" d="M78 1235q-8 -153 30 -223q30 -55 70 -9q71 82 117 420q0 10 -19 29.5t-46.5 35.5t-55.5 23.5t-50.5 -11t-27.5 -64.5q-15 -135 -18 -201z" />
<glyph unicode="(" horiz-adv-x="434" d="M70 662.5q0 -206.5 8 -306.5q15 -120 41 -232.5t47 -148.5q7 -14 41.5 -40t76 -39.5t68.5 22.5q16 23 22.5 36t7 30.5t-2.5 29.5t-12 47t-15 68q-28 126 -37.5 237t-9.5 291q0 218 22.5 438.5t71.5 366.5q6 33 -7 62.5t-49.5 43t-102.5 -19.5q-38 -20 -85.5 -196.5 t-76.5 -390.5q-8 -92 -8 -298.5z" />
<glyph unicode=")" horiz-adv-x="495" d="M74.5 -15.5q2.5 -21.5 21.5 -35.5q21 -21 69 -37.5t75 -9.5q38 8 64 43.5t67 144.5q51 129 73.5 255.5t22.5 295.5q-8 189 -33.5 336t-81.5 315q-36 109 -60.5 159.5t-51.5 70.5q-35 35 -79.5 40.5t-72.5 -22.5q-11 -11 -12.5 -30t10 -61t39.5 -110q104 -332 104 -653 q0 -323 -104 -539q-30 -71 -41.5 -106t-9 -56.5z" />
<glyph unicode="*" horiz-adv-x="923" d="M61 1290q-6 -28 37.5 -63.5t137.5 -85.5q30 -14 43.5 -20.5t25.5 -16t13 -14t-4.5 -15.5t-15 -20t-30.5 -27q-52 -47 -68 -115t27 -85q22 -8 58 1q96 36 116 56q12 12 16.5 10t16.5 -27q8 -57 30.5 -95.5t49.5 -52t55 -10t49 24.5q18 18 19 58t-12 116q-15 72 -7 72 q9 -5 23.5 -12t53 -22.5t70.5 -22t63.5 -0.5t43.5 32q10 22 10.5 41t-9 33.5t-21.5 25t-31.5 19.5t-34 14t-34.5 11q-22 11 -62.5 22t-48.5 11q0 2 19 18t47 41.5t58 55.5t56.5 66t36.5 66q-16 24 -22.5 34t-24 25t-35.5 19q-30 6 -64 -17.5t-145 -127.5q1 4 2.5 11.5 t4 28.5t3.5 41t-1 45.5t-8.5 45.5t-20 36.5t-33.5 22.5q-77 22 -111 0q-41 -26 -41 -190q-2 -15 -3.5 -32t-2 -29.5t-0.5 -23.5v-17v-5q-3 0 -14 5t-30.5 14.5t-35.5 15.5q-66 31 -115 42t-74.5 2t-25.5 -36z" />
<glyph unicode="+" horiz-adv-x="813" d="M33 754q-6 -33 33 -61t102 -34q6 -1 19.5 -3.5t18.5 -4t13.5 -6.5t12.5 -14.5t6 -24.5q0 -20 10 -77.5t16 -63.5q40 -56 135 -43q27 0 45 13.5t26.5 40t11.5 54.5t3 68q0 27 2 39.5t13.5 20t22 9t41.5 5.5t59 10q65 6 92.5 22t27.5 48q0 97 -137 92q-1 0 -13.5 -1.5 t-25 -1.5t-29.5 1.5t-30.5 8t-25.5 17t-17 30.5t-2 46q-6 66 -15.5 91.5t-35.5 37.5q-25 18 -70 25t-66 0q-43 -14 -43 -144q-6 -70 -25 -98.5t-73 -34.5q-63 -6 -82.5 -20t-19.5 -47z" />
<glyph unicode="," horiz-adv-x="448" d="M61 246q-6 -32 13.5 -68t58.5 -59q21 -19 29 -28t15 -25.5t-1.5 -33.5t-30.5 -40q-32 -44 -37 -63.5t9 -43.5q11 -20 29 -34.5t49.5 -21.5t68.5 17q61 36 105 136t37 192q-1 20 -5 40t-17.5 47t-34 47.5t-58 34.5t-86.5 13q-5 -1 -25.5 -6.5t-30 -8.5t-27.5 -11.5 t-27.5 -18.5t-19.5 -26.5t-14 -38.5z" />
<glyph unicode="-" horiz-adv-x="716" d="M53.5 533q-1.5 -24 18.5 -50q33 -45 106 -58t242 -1q166 16 190 22q30 9 39 29q39 39 0 78q-27 33 -83 47t-120 2q-32 0 -204 -16q-161 -17 -162 -17q-25 -12 -26.5 -36z" />
<glyph unicode="." horiz-adv-x="372" d="M73 187q-5 -63 15 -121q6 -24 36.5 -47.5t69 -34.5t81 13.5t67.5 90.5q-16 70 -16 94q4 5 1 12t-3.5 11t-6.5 10.5t-9.5 9.5t-12.5 9t-14 9l-15 9t-16 10q-26 12 -76 12t-70 -12q-26 -12 -31 -75z" />
<glyph unicode="/" horiz-adv-x="786" d="M72 39q-5 -35 18 -77.5t70.5 -61t120.5 33.5q23 17 33.5 47.5t43.5 170.5l18 76q19 75 24 95t25.5 100.5t34 126.5t38.5 134.5t49.5 164t57 175.5t70.5 209t81 227q5 17 -14 47.5t-57.5 43.5t-102.5 -29q-29 -22 -123.5 -244.5t-147.5 -392.5q-72 -215 -155.5 -506 t-83.5 -340z" />
<glyph unicode="0" horiz-adv-x="980" d="M61 558.5q-6 -195.5 35 -327.5q3 -18 12.5 -42t34 -60t59 -64t94 -47.5t132.5 -17.5q87 1 138 26.5t128 102.5q33 33 68 80.5t74.5 117t66.5 160.5t31 185q2 39 3.5 93t-7.5 120t-21.5 133.5t-39 133.5t-59 120t-81.5 93t-108 52q-42 21 -95.5 26.5t-87.5 -7.5 q-36 0 -73 -37q-23 -23 -30 -34t-7 -30q0 -44 -29 -73q-55 -46 -105.5 -140.5t-78.5 -199.5q-48 -168 -54 -363.5zM307 546q1 130 24 262t84.5 245t151.5 164q27 -48 45 -93q41 -83 55.5 -166t8.5 -194q-6 -141 -21 -202q-41 -177 -216 -337q-23 -20 -48 -41 q-38 34 -61.5 133t-22.5 229z" />
<glyph unicode="1" horiz-adv-x="516" d="M49 1118q-6 -42 7.5 -60.5t60.5 -43.5q22 -17 25 -33.5t3 -116.5q0 -151 25 -427t43 -347q5 -18 13 -34t27 -32.5t43.5 -23.5t65.5 -0.5t91 29.5q15 10 -1 224.5t-38 508t-15 438.5q2 32 -0.5 60.5t-10 59.5t-22 52t-38 38.5t-58 19t-80.5 -6.5q-58 -36 -90 -118 q-2 -8 -13.5 -35.5t-22 -66t-15.5 -85.5z" />
<glyph unicode="2" horiz-adv-x="919" d="M111 1116q6 -15 18 -31.5t34 -31.5t47 -19.5t60 11.5t70 55q31 36 54.5 57t50 29.5t43 10t53.5 1.5h18q19 5 42 -21t26 -67.5t-41 -95.5q-9 -17 -69 -100t-121 -172.5t-127.5 -216t-96.5 -232.5q-45 -159 -16 -219q32 -44 98.5 -52t153.5 27q1 1 17.5 9.5t29.5 14 t37.5 16t52 18t63.5 16t81 14.5t95 10q74 6 101 15.5t39 34.5q12 38 -24.5 73t-98.5 39q-88 7 -180.5 -3t-140.5 -24l-48 -14q-3 3 3 24t25.5 63.5t50 96.5t84.5 132t122 161q81 125 118 214t37 161q0 142 -84.5 217.5t-242.5 69.5q-90 0 -115 -8q-86 -25 -135 -53.5 t-111 -90.5q-31 -37 -55 -82t-18 -57z" />
<glyph unicode="3" horiz-adv-x="899" d="M47.5 1254q-2.5 -11 9.5 -29q14 -18 19.5 -25t28 -22.5t44.5 -16.5t61.5 9t86.5 38q164 80 213 80q19 0 20.5 -2.5t-4.5 -21.5q-20 -93 -71.5 -180t-149.5 -179q-90 -90 -100 -107q-4 -7 -4 -12q0 -23 22 -49t49 -39q35 -19 80.5 -19t134.5 19q30 8 42.5 11.5t29.5 5 t22 1.5t10 -7.5t3.5 -13.5t-6.5 -25.5t-10.5 -33.5t-18.5 -48q-108 -248 -375 -398q-30 -12 -38.5 -20.5t-8.5 -26.5q6 -66 81 -99.5t151 -4.5q88 29 191.5 117.5t164.5 185.5q124 197 119.5 336t-135.5 205q-15 4 -29 9.5t-20 9.5l-7 3q-3 0 1 9t15 28t17 35 q49 86 67.5 136.5t18.5 103.5q5 20 2 46.5t-6.5 54t-22 54t-44.5 46t-73.5 30t-109.5 6.5q-24 -1 -53.5 -1.5t-50 -1.5t-37.5 -5q-87 -24 -177 -70t-126 -82q-24 -29 -26.5 -40z" />
<glyph unicode="4" horiz-adv-x="796" d="M61 700.5q6 -57.5 66 -92.5q30 -19 73 -23.5t156 1.5q57 6 84 4t32.5 -6.5t10.5 -22.5q0 -10 21 -222t26 -237q12 -34 36 -54t67 -32q23 -7 47.5 -1.5t47.5 26.5t32 63t0 109q-7 38 -14.5 105.5t-15 146t-9.5 96.5q0 35 4 42t27 13q71 12 71 72q-1 4 -2.5 10.5t-2.5 9 t-2 7t-2.5 6.5t-3.5 5.5t-4.5 5.5t-6 5t-8.5 6q-31 31 -56 31q-16 10 -20 22t-8 60q-1 18 -2 29q0 10 5 67.5t7.5 110.5t-6 127t-31.5 131q-13 32 -57.5 42t-85.5 -1.5t-45 -34.5q-6 -35 -11.5 -170.5t-5.5 -238.5q-1 -21 -2 -54q-3 -69 -11.5 -81t-59.5 -15q-13 -1 -21 -2 q-42 0 -48 5q-10 9 5 66q2 9 10 40q30 128 44.5 294t-3.5 205q-24 36 -85.5 55.5t-96.5 0.5q-7 0 -16 -5.5t-9 -11.5q-6 -11 -14.5 -94.5t-26.5 -206t-45 -213.5q-41 -143 -35 -200.5z" />
<glyph unicode="5" horiz-adv-x="796" d="M55 1008.5q-6 -172.5 19 -213.5q11 -28 44.5 -51t65.5 -29q16 -3 56.5 3.5t99.5 17t106 12.5q41 6 48.5 -1t7.5 -49q0 -106 -50.5 -237t-123.5 -215q-24 -24 -39 -32.5t-41 -14.5q-29 -4 -48.5 -22t-22 -47t23.5 -67q30 -30 78.5 -45.5t95.5 -9.5q31 7 102.5 78 t145.5 183.5t106.5 249.5t-12.5 276q-29 60 -88.5 85t-173.5 25q-103 0 -119 -8q-25 0 -28 21.5t3 146.5q0 125 10 146.5t70 27.5q87 11 199.5 34t126.5 30q47 28 24 74q-21 43 -81 62q-30 9 -62 7q-12 0 -182 -31q-194 -42 -254 -62.5t-66 -49.5q0 -37 -6 -56 q-29 -66 -35 -238.5z" />
<glyph unicode="6" horiz-adv-x="878" d="M41 393q-1 -36 1 -70.5t9 -75t21 -74.5t35 -66.5t53.5 -54.5t74 -35t99 -10.5t125.5 20.5q97 46 194 152t140 222q7 18 14.5 51t10 86.5t-7.5 101.5t-45.5 92t-96.5 63q-56 16 -128 17t-132 -17q-11 -4 -23.5 -6t-19.5 -3h-7q-4 4 17 81.5t55.5 180t61.5 164.5 q24 64 33.5 99t9 61.5t-12.5 39.5t-39 26q-23 11 -62.5 13t-62.5 -5q-68 -27 -143 -242q-12 -20 -36.5 -88t-55 -174t-54.5 -255.5t-28 -293.5zM285.5 386.5q-3.5 42.5 0 80t20.5 69t48 44.5q42 19 92 30t76.5 11t36.5 -3q8 -16 8 -32q0 -102 -135 -277q-24 -28 -50 -50.5 t-44.5 -31t-22.5 -0.5l-6 25q-6 25 -13 58.5t-10.5 76z" />
<glyph unicode="7" horiz-adv-x="819" d="M113 1286q3 -39 57 -72q78 -35 272 0q98 22 106 17q4 -2 -1 -17q0 -6 -6 -48t-16 -114t-17 -134q-25 -143 -69 -429t-44 -319q-2 -14 -1.5 -29.5t6 -36t19 -36t37.5 -29.5t60.5 -16.5t87.5 2.5q21 11 31 22.5t23 57t25 115.5t34 214q60 494 110 836q3 22 -0.5 46t-18 52 t-40 48.5t-72 30t-108.5 1.5q-4 0 -21 -4.5t-50.5 -13.5t-57.5 -15q-12 -3 -57 -10.5t-91 -17t-93.5 -22.5t-77 -33.5t-27.5 -45.5z" />
<glyph unicode="8" d="M76 891q23 -48 60.5 -79.5t63.5 -38.5l27 -7q0 -3 -4.5 -10t-11.5 -16.5t-10 -16.5q-87 -93 -111 -258.5t31 -278.5q16 -32 25 -49t35.5 -48.5t55 -47.5t78 -27t109.5 -6q82 0 132.5 19.5t125.5 70.5q168 134 173.5 316t-155.5 344q-21 21 -49.5 45.5t-29.5 25.5 q18 27 53 54q171 155 88 295q-6 13 -16.5 28t-34.5 39.5t-66.5 40.5t-95.5 17q-12 0 0 26q31 42 -16 71q-51 33 -136 19q-33 -5 -63 -18q-148 -68 -223 -207q-91 -187 -35 -303zM307 954q-9 57 37 179q23 45 35 45q1 0 35 -5.5t55 -5.5q61 -6 77.5 -17t10.5 -44 q-13 -45 -95 -113.5t-128 -74.5q-20 0 -23.5 4.5t-3.5 31.5zM340 345q0 82 20 136q21 71 59 142t58 71q18 -16 45 -43q122 -137 53 -286q-21 -48 -67 -97.5t-84 -62.5q-24 -10 -33.5 -11t-15 4.5t-15.5 24.5q-20 40 -20 122z" />
<glyph unicode="9" d="M57 866q3 -22 16.5 -50.5t47.5 -61t81 -50t125.5 -9t172.5 52.5l32 10q-26 -656 9 -699q15 -25 47 -44t85.5 -16t106.5 44q8 16 8 281q0 196 7.5 307t35.5 338q19 132 20 163.5t-11 49.5q-6 6 -11.5 26t-5.5 33q0 66 -55.5 113t-138.5 57.5t-180 -16.5 q-91 -39 -175.5 -106.5t-140.5 -149.5q-55 -81 -71.5 -143.5t-4.5 -129.5zM311 901q-3 25 0.5 50t14 48.5t21.5 43t31 41.5t33 36t37 33.5t34 27.5t33 25t26 19q53 36 68 26q4 -3 1 -10q0 -13 -12.5 -52t-30.5 -75q-33 -61 -71.5 -105.5t-69.5 -64.5t-58 -31t-42 -11z" />
<glyph unicode=":" horiz-adv-x="378" d="M81.5 382q-5.5 -63 14.5 -122q5 -18 25.5 -38.5t50.5 -33t62 -12.5t64 27t52 80q-16 70 -16 94q4 5 1 12t-3.5 11t-6.5 10.5t-9.5 9.5t-12.5 9t-14 9l-15 9t-16 10q-26 12 -75.5 12t-69.5 -12q-26 -12 -31.5 -75zM87.5 980q-5.5 -63 14.5 -122q5 -18 25.5 -38.5t50.5 -33 t62 -12.5t64 27t52 80q-16 70 -16 94q4 5 1 12t-3.5 11t-6.5 10.5t-9.5 9.5t-12.5 9t-14 9l-15 9t-16 10q-26 12 -75.5 12t-69.5 -12q-26 -12 -31.5 -75z" />
<glyph unicode=";" horiz-adv-x="448" d="M61 246q-6 -32 13.5 -68t58.5 -59q21 -19 29 -28t15 -25.5t-1.5 -33.5t-30.5 -40q-32 -44 -37 -63.5t9 -43.5q11 -20 29 -34.5t49.5 -21.5t68.5 17q61 36 105 136t37 192q-1 20 -5 40t-17.5 47t-34 47.5t-58 34.5t-86.5 13q-5 -1 -25.5 -6.5t-30 -8.5t-27.5 -11.5 t-27.5 -18.5t-19.5 -26.5t-14 -38.5zM87.5 980q-5.5 -63 14.5 -122q5 -18 25.5 -38.5t50.5 -33t62 -12.5t64 27t52 80q-16 70 -16 94q4 5 1 12t-3.5 11t-6.5 10.5t-9.5 9.5t-12.5 9t-14 9l-15 9t-16 10q-26 12 -75.5 12t-69.5 -12q-26 -12 -31.5 -75z" />
<glyph unicode="&#x3c;" horiz-adv-x="729" d="M57.5 636.5q-6.5 -22.5 6 -48t35 -57t65.5 -80.5q105 -123 225 -244q25 -25 51 -45t57.5 -34t57 -12.5t46 27.5t28.5 78q-1 3 -80 82t-161.5 169t-94.5 122q25 62 88.5 141.5t125.5 140.5t114.5 120t60.5 87q6 24 -27.5 48t-74 29.5t-70.5 -9.5q-32 -22 -143 -143 q-45 -48 -248 -277q-29 -32 -42 -52t-19.5 -42.5z" />
<glyph unicode="=" horiz-adv-x="765" d="M49.5 826q-1.5 -24 18.5 -50q33 -45 106 -58t242 -1q166 16 190 22q30 9 39 29q39 39 0 78q-27 33 -83 47t-120 2q-32 0 -204 -16q-161 -17 -162 -17q-25 -12 -26.5 -36zM60.5 517.5q-5.5 -11.5 0.5 -23.5q1 -3 2.5 -11.5t2.5 -12t4 -12t6.5 -12t11 -11.5t16 -10 t21.5 -8.5t29.5 -6t38 -3t47.5 0.5q385 21 426 34q9 6 20 17t19.5 28.5t7 34.5t-24 34.5t-65.5 29.5q-62 23 -297 0q-132 -12 -180.5 -22t-67.5 -29q-12 -6 -17.5 -17.5z" />
<glyph unicode="&#x3e;" horiz-adv-x="710" d="M68 1145q-19 -32 38 -131q35 -71 119 -154t149 -134l66 -52q0 -2 -64 -92.5t-139 -201t-96 -153.5q-11 -26 26.5 -68t94.5 -42q24 -2 44.5 7t41.5 35.5t32.5 44.5t35.5 60q4 6 118 186t117 187q53 53 -22 108q-67 47 -204.5 180.5t-209.5 223.5q-12 9 -23.5 15t-22 7.5 l-17.5 2.5t-17 -1.5t-14 -4t-14.5 -6t-12.5 -5.5q-9 0 -17.5 -4t-8.5 -8z" />
<glyph unicode="?" horiz-adv-x="757" d="M55 1221q3 -12 12.5 -29t28 -33t41 -23t54 5t63.5 47q44 47 152 59q36 6 48.5 -1.5t6.5 -33.5q-9 -29 -80 -129q-127 -152 -182.5 -247t-55.5 -166q0 -65 49 -143.5t103 -98.5q18 -7 24.5 -9.5t27.5 -8t32 -5t29 4.5t28.5 15t20 31.5t12.5 49.5q2 18 -7.5 45.5t-18 56 t-10 63.5t20 80t68.5 93q77 99 114 153.5t44 70.5t18 50q6 20 8 45.5t-3 58.5t-17.5 63.5t-40.5 59t-67.5 48t-102.5 28t-141 0.5q-134 -13 -216 -73.5t-63 -126.5zM229 184q-6 -58 16.5 -99t71.5 -58q13 -5 34.5 -6.5t48 5.5t48 22t34 47t7.5 77q-27 126 -213 98 q-47 -23 -47 -86z" />
<glyph unicode="@" horiz-adv-x="1144" d="M66 743.5q0 -100.5 14 -147.5q9 -38 28.5 -84t28.5 -51q0 -12 21 -33q25 -43 82.5 -90.5t95.5 -56.5q7 0 20 -13q15 -10 63 -16t97 -2q76 0 121 12q109 38 174 129q9 9 17 28.5t8 29.5q0 9 -19 28.5t-39 28.5q-12 6 -57 6q-29 0 -39.5 -5.5t-44.5 -39.5q-48 -48 -84 -66 t-88 -18q-38 0 -49.5 3.5t-40.5 23.5l-45 45q-9 18 -19 18q-12 27 -39 84q-18 81 -18 148q0 46 15.5 134t29.5 122l12 24q7 18 25 45q47 77 140 125.5t194 48.5q91 0 144 -37t87 -123q24 -53 21.5 -147.5t-27.5 -128.5q-3 -8 -8 -16t-9 -12l-4 -5q-9 5 -34.5 71t-34.5 109 q-4 24 -48.5 69.5t-74.5 59.5q-34 14 -91.5 14t-86.5 -14q-35 -12 -52.5 -25t-50.5 -46q-27 -27 -37.5 -44t-33.5 -65q-13 -24 -14.5 -88.5t8.5 -83.5q46 -71 129 -110q29 -13 88 -13q45 0 62.5 3t41.5 16q57 38 64 45q20 20 26 21.5t19 -7.5q43 -34 109.5 -42t119.5 16 q25 9 54 34t42 50q21 39 27.5 119.5t-6.5 148.5q-16 94 -60 160q-57 78 -75 90q-14 7 -27 20q-4 9 -45.5 29.5t-81.5 34.5q-37 13 -61 15.5t-99 2.5h-123q-104 -22 -178 -63q-108 -46 -172 -134t-98 -231q-14 -53 -14 -153.5zM489 756q0 42 32 97.5t71 80.5l20 8q3 0 3 -5.5 t-1.5 -20t-1.5 -27.5q-4 -40 -16.5 -82t-22.5 -57q-12 -18 -32 -35t-31 -23q-21 0 -21 64z" />
<glyph unicode="A" horiz-adv-x="880" d="M41 131q-3 -9 -3 -19q0 -21 15 -44q22 -33 58 -52q31 -16 69 -16h12q44 3 74 37q7 7 23 123q4 25 11 64q12 69 16 82t19 20q3 1 5 2q4 0 96 31q80 27 97 27q3 0 4 -1q78 -226 86 -240q2 -24 25.5 -41t55.5 -21q14 -2 29 -2l37 3q32 5 54.5 27.5t23.5 56.5q0 4 -36 131 t-36 131q2 0 5 0.5t12.5 2.5t16.5 5t17 9t13 14t5.5 20t-5.5 27q-5 26 -21 35t-42.5 10.5t-37.5 5.5q-9 0 -26 43t-66 186q-10 31 -16 48q-22 66 -52 150t-50 139.5t-23 66.5q-3 9 -6.5 22t-5 18.5t-3.5 14.5t-2 16t0.5 17t2.5 23q5 27 1 55.5t-14 51.5q-10 24 -37 36 q-20 9 -48 9q-9 0 -19 -1q-44 -6 -58 -14q-28 -28 -61 -144.5t-98 -423.5q-46 -209 -78 -420t-39 -321zM346 516q-1 0 -1 5q1 14 9 70q12 75 25.5 149.5t17.5 74.5q20 -53 43 -125l45 -131q0 -4 -34.5 -16t-69.5 -21.5t-35 -5.5z" />
<glyph unicode="B" horiz-adv-x="874" d="M-252 1268q6 -34 45 -54q30 -15 67 -15q11 0 23 1h2q26 0 30.5 -12t4.5 -84q0 -328 39 -762q12 -123 33.5 -181t93.5 -112q42 -23 106 -23q41 0 92 10q129 24 210 87q69 58 92 85q95 109 95 300q0 25 -2 52q-1 29 -5 61q-10 90 -87 156t-184 91q-17 0 -31 5.5t-14 11.5 q10 0 37 45q107 115 107 264q2 25 -1 51.5t-15 57t-32 56.5t-55 47t-81 31q-34 7 -79 7h-33q-68 -4 -149 -25q-96 -26 -189 -61t-114 -60q-6 -6 -6 -30zM145.5 1266q4.5 4 38.5 10q10 4 23 5.5t27.5 1.5t25.5 -8t14 -22q1 -6 1 -13q1 -34 -23 -92q-28 -70 -68 -114 q-15 -21 -19 -16q-4 7 -11 100q0 31 -3.5 78t-3.5 49q-6 17 -1.5 21zM184 689q6 11 45 22q25 11 73 12h6q44 0 87 -12q11 -4 39 -54q17 -40 17 -107t-17 -118q-2 -5 -8.5 -23.5t-10.5 -29t-14 -29t-19 -31t-25 -29t-34 -28t-44 -23t-56 -18.5q-31 302 -39 400q-3 30 -3 47 q0 16 3 21z" />
<glyph unicode="C" horiz-adv-x="929" d="M48 652q-1 -38 0 -70q0 -93 7 -142q28 -129 45 -176q87 -242 331 -255q17 -1 34 -1h14q45 0 103 14q68 18 136 52q67 32 113 92q43 56 43 122v9q-26 26 -35 32q-37 25 -79 25q-76 0 -166 -82q-78 -62 -117 -71q-8 -2 -15 -1q-29 0 -50 27q-68 80 -88 272q-7 64 -6 128 q0 127 26 252q1 5 9 41.5t16 67.5t24 75.5t33.5 77.5t45.5 62t60 40l31 14q6 0 18.5 -28t12.5 -39q0 -23 45.5 -45.5t91.5 -22.5q37 0 57 30q16 24 16 59q0 9 -1 17q-5 46 -35 91q-46 69 -146 99q-57 17 -115 17q-43 0 -87 -10q-267 -69 -357 -561q-11 -66 -15 -212z" />
<glyph unicode="D" horiz-adv-x="1007" d="M24 1391.5q1 -24.5 31 -54.5q12 -20 14.5 -31t2.5 -36q2 -14 21 -251t28 -276q0 -36 37.5 -301t54.5 -292q14 -28 14 -50q5 -28 45 -56q40 -30 102 -36q7 -1 15 0q56 0 121 43q26 19 67 55.5t93.5 90t101 121t74.5 128.5q83 201 83 372q0 20 -1 40q-10 119 -25 182 q-73 302 -342 392q-100 33 -225 36q-66 0 -66 9q-13 13 -64 25q-34 8 -61 9q-13 0 -24 -2q-29 -9 -49 -49q0 -7 -6 -17.5t-17 -15.5q-26 -11 -25 -35.5zM319 1288q-6 20 0.5 22t49.5 -5q50 0 92 -25q117 -63 175 -179q48 -96 48 -215q0 -25 -2 -50q0 -24 -2.5 -54.5t-17 -92 t-39 -118.5t-73.5 -125t-116 -120q-12 42 -28.5 138t-42 321t-44.5 503z" />
<glyph unicode="E" horiz-adv-x="868" d="M53 426q2 -33 5.5 -64.5t17 -86t33.5 -97t58.5 -83.5t87.5 -59q34 -12 81 -12q22 0 44 2q76 8 167 50q39 17 91 64t69 81q14 28 14 51q0 53 -74 78q-34 9 -59 10q-16 0 -28 -4q-32 -9 -81 -45q-87 -71 -101 -77q-17 -7 -26 14q-1 3 -10 26q-28 64 -39 244q0 85 4.5 100 t32.5 21h2q118 25 206.5 54.5t98.5 51.5q6 13 6 25q-1 28 -29 53q-40 37 -108 37q-9 0 -57.5 -11.5t-92.5 -21t-47 -6.5q-6 0 -7 17t-1 90q3 25 6 105t5.5 144t5.5 64q252 39 463 62q10 1 19.5 18t5.5 44.5t-32 49.5q-38 27 -84 31q-10 1 -25 1q-47 0 -134 -9 q-342 -58 -404 -90q-17 -10 -27 -30.5t-4 -31.5q6 -6 6 -15.5t-6 -15.5q-5 -21 -20.5 -167t-27.5 -348q-8 -127 -8 -219q0 -53 3 -95z" />
<glyph unicode="F" horiz-adv-x="874" d="M68 602q0 -15 -1 -28q0 -367 13 -447q12 -72 46.5 -99.5t111.5 -27.5q50 0 78 18q27 17 26 66l-25 426q-2 54 -3 77.5t0.5 51.5t3.5 36t11 21.5t17 18t27 16.5q13 7 56.5 34t66.5 38t96.5 39.5t185.5 64.5q37 21 37 49q0 4 -1 8q-6 33 -60 62q-34 21 -86 21 q-98 0 -262 -76l-80 -33q-8 -4 -12 11q-2 10 -2 34q0 39 5 115q6 53 15 64t57 30q147 52 265 81q67 17 163 38q14 9 20.5 28t-5 45.5t-46.5 47.5q-36 20 -97.5 20t-147.5 -20q-71 -10 -168 -50q-52 -18 -69.5 -18.5t-33.5 12.5q-33 18 -71.5 18.5t-48.5 -12.5 q-20 -20 -39 -73.5t-25 -116.5q-18 -198 -18 -590z" />
<glyph unicode="G" horiz-adv-x="1032" d="M45 627v-17q0 -28 2 -74q3 -60 13.5 -113.5t36 -118.5t63.5 -115.5t101.5 -94.5t144.5 -65q52 -11 105 -11q52 0 105 10q107 22 177 81q28 28 51 28q18 11 42 42.5t52 89.5t35 131q2 22 2 45q0 57 -12 124q-39 71 -124 106q-65 27 -141 27q-22 0 -46 -2 q-101 -11 -187 -65q-31 -19 -39 -47q-1 -6 -1 -11q0 -23 26 -45q38 -33 87 -33q37 0 80 19q36 20 73.5 28t49.5 1q4 -2 7 -22.5t1.5 -53t-8.5 -70t-28.5 -75t-53.5 -67.5t-89 -47q-48 -15 -107 -15h-21q-76 3 -114.5 88.5t-38.5 224.5q0 95 28 221.5t68 224.5 q29 70 76 152.5t84 124.5q21 17 27.5 18t23.5 -10q21 -16 62.5 -22.5t62.5 0.5q8 5 17.5 18.5t14.5 35t0.5 44.5t-29 50t-69.5 48q-38 21 -88 27q-19 3 -35 3q-29 0 -53 -7q-59 -17 -110.5 -66t-108.5 -139q-9 -12 -25 -33.5t-23 -30t-11 -8.5q-15 -27 -41.5 -82.5t-66 -176 t-44.5 -216.5q-3 -29 -4 -59z" />
<glyph unicode="H" horiz-adv-x="854" d="M51 989q0 -309 31 -667q12 -133 21.5 -182.5t27.5 -73.5q25 -31 80 -45q24 -6 45 -6q27 0 47 10q17 7 24 16.5t9 43.5q1 14 2 31q0 24 -2 54q-4 51 -14 152q-2 19 -6 51q-9 67 -9 98q0 14 2 21q6 20 39 32q8 3 26 9l29 10q98 32 99 32q11 0 24 -188q19 -183 30 -235.5 t36 -77.5q37 -43 108.5 -43t96.5 43q3 7 3 31q0 47 -12 159q-44 339 -90 928q-13 149 -32 188q-19 36 -77 52q-27 8 -49 8q-26 0 -46 -10q-18 -4 -25 -32q-6 -23 -6 -82q1 -12 1 -26q2 -79 13 -229q3 -51 7.5 -121t7 -107.5t2.5 -44.5q0 -10 -4 -15t-26 -15.5t-69 -26.5 l-100 -33q-4 0 -6 27.5t-4.5 95.5t-5.5 115q-12 256 -19.5 305t-38.5 74q-1 1 -9.5 6.5t-12 7.5t-13 6.5t-16 5.5t-17.5 2t-21 -1t-23 -6.5t-27 -12.5q-31 -25 -31 -334z" />
<glyph unicode="I" horiz-adv-x="448" d="M46 1370q-1 -17 -1 -40q0 -40 4 -97q6 -153 38 -593.5t44 -524.5q11 -101 150 -115q24 0 44.5 6.5t41 24.5t24.5 50q1 11 1 23q0 26 -5 60q-18 188 -90 889q-18 182 -33 258t-35 102q-36 36 -104 36q-20 0 -43 -3q-18 -4 -25 -17t-11 -59z" />
<glyph unicode="J" horiz-adv-x="425" d="M-550 -144q28 -56 104 -94q87 -42 167 -42q74 0 143 36q143 74 195 271q7 20 15 143q8 111 8 284v42q-1 202 -21 364q-5 37 -19 161t-28.5 228t-29.5 156q-7 24 -29 40t-64 20q-6 1 -13 1q-38 0 -89 -20q-21 -36 -21 -150q0 -134 29 -376q21 -220 21 -427v-87 q-6 -249 -31 -332q-20 -86 -39 -113q-23 -33 -63 -33q-23 0 -52 11q-44 29 -95 35q-10 1 -19 1q-36 0 -54 -18q-25 -27 -25 -58q0 -21 10 -43z" />
<glyph unicode="K" horiz-adv-x="905" d="M49 1378q-2 -10 -2 -60q0 -191 27 -962q4 -144 12 -205t19.5 -80t44.5 -38q42 -20 81 -20q7 1 14 1q45 4 70 35q14 40 14 116v29q-3 98 -9 196q-5 76 -5 94v5q17 -15 33 -40q58 -83 150.5 -176t148.5 -123q59 -27 112 -27q9 0 17 1q60 5 72 42q6 30 -8 50.5t-52 39.5 q-27 14 -85 66t-121 122q-62 70 -108 152q-43 77 -42 135v8q0 3 48 102t98 203.5t53 118.5q44 97 54 151q3 16 3 30q0 32 -16 51q-25 25 -80 33q-18 3 -33 3q-32 0 -53 -12q-32 -72 -86 -180t-92 -180l-37 -72q-3 0 -12 82t-20.5 190.5t-18.5 151.5q-5 9 -13.5 18 t-26.5 19.5t-49 8.5t-69 -19q-24 -24 -33 -60z" />
<glyph unicode="L" horiz-adv-x="784" d="M44 1386v-13q0 -50 5 -195q0 -50 4 -295.5t4 -380.5q3 -165 5 -247.5t5.5 -129t6.5 -56t10 -16.5q22 -28 59 -46q23 -11 41 -11q11 0 21 4q48 21 188.5 62t234 79.5t97.5 75.5q1 41 -37 71q-31 25 -76 25q-9 0 -18 -2q-91 0 -215 -43q-16 -4 -31.5 -6t-23.5 -2h-6 q-8 104 -9 225q-7 247 -19 500.5t-24 312.5q-6 62 -18 91.5t-43 48.5q-26 12 -81 12t-67 -12t-13 -52z" />
<glyph unicode="M" horiz-adv-x="1118" d="M57 1188q0 -333 17 -942q2 -54 2.5 -81.5t3.5 -60.5t4 -46t7.5 -31t9.5 -22.5t14 -14t18 -12.5t25 -11q24 -15 67 -19h12l74 19q17 57 17 169t-8 234t-9 138v3q-3 60 -3 92q0 38 4 41q4 2 12 -12q9 -14 36 -72q6 -13 9 -19q7 -17 17.5 -38.5t17 -35t6.5 -16.5 q26 -26 88 -38q26 -5 47 -5q31 0 53 10q26 9 48 76t38 137.5t29 81.5q16 -33 55.5 -279t42.5 -260q34 -101 145 -101q12 0 25 1q55 0 79 32q13 18 13 38q0 17 -8 36q-18 36 -18 66q0 3 -28 205t-62.5 478.5t-47.5 438.5q-19 37 -89 54q-29 7 -52 7q-33 0 -55 -14l-27 -22 l-203 -557q-26 34 -111.5 240.5t-109.5 250.5q-12 16 -20 25.5t-28.5 26t-38.5 21.5t-45.5 0.5t-55.5 -24.5q-12 -19 -14.5 -43.5t-2.5 -144.5z" />
<glyph unicode="N" horiz-adv-x="921" d="M44 1196v-38q0 -123 4 -521q1 -48 1 -74q9 -481 25 -512q12 -31 54 -48q31 -13 62 -13q11 0 23 2q42 0 58 15t22 54q3 12 3 68q0 67 -4 193q-7 236 -13 276q3 -4 43.5 -59t87.5 -116.5t101 -129.5t102 -118t73 -62q52 -22 91 -21.5t65 21.5q8 7 12 11t8 10t5 17t2 22.5 t-1 36t-3.5 49.5t-5.5 69q-1 8 -1 12q0 60 -26 571.5t-31 522.5q-30 60 -111 60q-31 0 -69 -9q-22 -12 -27 -21q-12 -21 -12 -125q0 -32 1 -73q3 -103 21 -506q4 -72 6 -144.5t2 -109.5v-37q-5 -5 -155 285.5t-172 337.5q-39 67 -39 102q-6 56 -42.5 87.5t-88.5 31.5 q-41 0 -58 -17q-1 -2 -3 -5q-9 -13 -10 -95z" />
<glyph unicode="O" horiz-adv-x="985" d="M52 741q-2 -37 -2 -80q0 -48 2 -103q6 -106 25.5 -204t67 -181.5t117.5 -115.5q43 -23 92 -37q40 -11 96 -12q12 0 26 1q73 3 145 32q43 22 82 51.5t81 80.5t72.5 114.5t51.5 156t24 201.5v17q0 47 -4 98q-6 60 -25 139t-50 153t-84.5 153.5t-123.5 142.5q-56 50 -105 74 t-108 24q-42 6 -53 4t-29 -20q-22 -22 -22 -33q0 -16 -33 -49l-8 -8q-31 -30 -50 -54t-51 -78t-62 -142t-58 -208q-9 -40 -14 -117zM278 636q0 16 1 33q0 99 12 197q15 114 62 215.5t120 159.5q12 0 33 -33q14 -14 34 -47t31 -67q105 -196 111 -395v-26q0 -184 -86 -339 q-38 -58 -94 -105q-50 -42 -79 -42q-4 0 -7 1q-6 0 -27.5 28.5t-38.5 59.5q-29 56 -49.5 150t-22.5 210z" />
<glyph unicode="P" horiz-adv-x="782" d="M41 1307q0 -2 2 -55.5t4 -142.5t2 -175q0 -82 1 -145.5t3 -118.5t3.5 -80.5t5 -81t4.5 -70.5q27 -195 44 -283t35 -106q27 -27 51 -36t51 -9q42 0 93 21q15 18 15 85q-1 13 -1 28q-4 91 -15.5 181t-24.5 174t-13 91q0 1 26 13t69 37t91.5 60t102 94.5t92.5 129.5 q35 100 39 190v17q0 80 -34 153q-38 80 -120 127q-95 38 -189 38q-55 0 -110 -13q-26 -6 -42 -6t-23 6h-49q-35 6 -51.5 -4.5t-22.5 -36.5q0 -3 -19.5 -38t-19.5 -44zM276 1178q6 68 13 80t43 18q52 11 87 11t52 -11q36 -36 36 -99q0 -19 -3 -40q-10 -64 -35.5 -120.5 t-55 -91t-57 -60t-45.5 -35.5l-18 -11q-6 0 -11.5 130t-5.5 229z" />
<glyph unicode="Q" horiz-adv-x="1069" d="M51 705q-1 -26 -1 -50q0 -328 149 -477q17 -17 29 -28.5t28.5 -26t30 -24t32 -20.5t36 -18t40 -14t46.5 -10.5t53 -6t62 -2.5t71 3q37 12 47.5 10t42.5 -27q44 -32 99 -41q18 -3 35 -3q33 0 59 12q40 17 44 57q6 25 -7 44t-50 38q-11 4 -21.5 9.5t-15.5 9.5l-4 3 q0 19 33 52q21 21 38.5 44t44.5 89.5t38 147.5q7 49 7 119q0 46 -3 101q-7 138 -43 303q-32 104 -100.5 211t-129.5 150q-57 38 -131 58q-46 12 -82 12q-22 0 -41 -5q-8 -4 -25.5 -12t-25.5 -12q-4 -2 -19.5 -10t-31.5 -16t-31 -15q-135 -68 -213 -235.5t-90 -419.5z M304 755q16 198 77 326q6 9 23 42t25.5 44.5t28 33t44.5 33t59 19.5q13 5 21 0.5t28 -24.5q43 -50 88.5 -143.5t69.5 -186.5q23 -129 23 -234q0 -176 -66 -282q-91 180 -107 213q-18 54 -44 79.5t-70 37.5q-20 3 -37 3q-61 0 -70 -38q-1 -8 -1 -17q0 -40 21 -105 q26 -80 95 -239q37 -89 37 -103q0 -11 -27 -11h-10q-6 -1 -11 -1q-54 0 -101 52q-51 58 -76 154q-26 103 -26 230q0 56 6 117z" />
<glyph unicode="R" horiz-adv-x="804" d="M47 1344q-1 -11 -1 -35q0 -71 5 -257v-1q0 -89 4 -330t4 -336q6 -268 15 -317.5t56 -73.5q3 -1 5 -2q38 -13 74 -13q17 0 35 3q52 10 71 47q0 2 1 22q1 21 2 45q1 16 1 42q-1 12 -1 28q0 46 -3 100q2 203 9 203q15 -15 59 -119q34 -61 55.5 -90.5t63.5 -71.5 q29 -29 55 -47q25 -19 57 -29q16 -5 33 -5q16 0 33 5q34 10 68 42q2 7 2 15q0 38 -52 97q-24 24 -73.5 101t-89.5 163q-14 30 -33 64t-34 59t-17 29q-13 26 -10 34t34 34q1 1 21.5 15.5t43 33t52.5 52.5t54.5 73t44 97t24.5 122l2 28q0 67 -30 113q-35 56 -109 98 q-44 20 -124 28q-23 2 -46 3q-58 0 -119 -14q-38 -9 -51.5 -7t-26.5 15q-14 7 -33 13t-52.5 5.5t-57.5 -18.5q-19 -19 -21 -63zM279 1226.5q4 6.5 36 18.5q59 19 99 19q48 0 69 -27q8 -23 8 -48q0 -38 -18 -82q-29 -73 -98 -142l-68 -68q-5 0 -15.5 134t-10.5 163 q-6 26 -2 32.5z" />
<glyph unicode="S" d="M57 893q12 -92 67 -151t193 -126q120 -61 161.5 -87.5t66.5 -57.5q24 -40 23.5 -80.5t-23.5 -81.5q-35 -58 -94 -83q-22 -9 -38 -10q-20 0 -29 17q-2 5 -3 11q0 43 -34 70.5t-95 33.5q-15 1 -28 1q-40 1 -60 -13q-26 -18 -27 -68q0 -23 19 -66t61 -91.5t92 -69.5 q69 -31 141 -31q50 0 103 15q32 11 56.5 21t59.5 30t59 42.5t47.5 58t33.5 77.5q8 35 8 80v20q-2 58 -20 125q-43 80 -108 133.5t-210 126.5q-129 71 -137 88q-20 23 -20 57q0 93 149 269q115 115 137 115q12 0 13 -16v-5q0 -18 -5 -61q-4 -46 -4 -64v-10q2 -13 21 -25 q16 -31 65 -47q25 -8 50 -9q22 -1 44 7q46 14 52 58q13 40 13 81q0 49 -19 99q-18 78 -81.5 121t-162.5 49q-74 0 -90 -8q-67 -12 -118.5 -43t-125.5 -105q-98 -92 -156 -205q-49 -94 -49 -164q0 -15 2 -28z" />
<glyph unicode="T" horiz-adv-x="876" d="M-76.5 1315.5q1.5 -27.5 21.5 -47.5q30 -30 84 -36q19 -2 44 -3q46 0 111 8q25 3 41 3q17 0 23 -4q10 -6 16 -48q0 -391 47 -823q28 -223 37 -257q8 -27 19 -38q18 -29 55 -46.5t74 -17.5q36 0 71 14.5t41 32.5q3 9 3 29q0 58 -27 211q-46 234 -80 878q0 72 6 85.5 t41 19.5q25 8 151 8q96 0 114.5 2.5t33.5 18.5l2 2l2 2q20 22 20 45q0 10 -4 22q-14 36 -63 68q-18 11 -88 16q-35 2 -65 2t-54 -2q-7 -1 -38 -5.5t-92 -13t-103 -13.5q-383 -41 -422 -72q-23 -13 -21.5 -40.5z" />
<glyph unicode="U" d="M41 754q0 -393 86 -564q36 -63 57 -87q81 -94 219 -94q60 0 132 18q34 17 60 34.5t66.5 63.5t69.5 107t57 167.5t41 241.5q14 102 14 246q1 68 -3 146q-10 242 -37 308q-3 14 -10.5 28.5t-25 35t-44 30.5t-67.5 14q-8 1 -16 1q-35 0 -79 -14q-34 -27 -34 -60q0 -16 8 -35 q39 -73 43 -319v-41q0 -222 -35 -401q-20 -108 -70.5 -228.5t-77.5 -126.5q-13 -4 -30.5 45t-32.5 133t-23 177q-3 46 -3 104q0 160 22 416q10 88 10 146q0 83 -21 104q-25 26 -75 36q-22 5 -43 5q-24 0 -45 -7q-52 -20 -82.5 -193.5t-30.5 -436.5z" />
<glyph unicode="V" horiz-adv-x="874" d="M41 1341q-1 -4 -1 -10q0 -41 46 -178q8 -27 81.5 -264t132.5 -424t73 -223q30 -100 46 -143t25 -55.5t27 -20.5q27 -13 61 -19q14 -3 29 -3q21 0 43 5q38 9 55 39q9 104 23 225q12 117 98 815q28 210 30 255v9q0 38 -15 60l-9 7q-10 6 -17.5 10t-24 10t-33.5 8.5t-43 1.5 t-54 -6q-3 -3 -9 -7.5t-9.5 -8t-3.5 -7.5q-3 -6 -30 -204t-53.5 -393t-29.5 -195l-25 78q-168 550 -208 608q-23 40 -48 54.5t-81 20.5q-25 6 -47 -5.5t-29 -39.5z" />
<glyph unicode="W" horiz-adv-x="1316" d="M49 1341q-1 -8 -1 -21q0 -56 21 -208q26 -187 64 -362q39 -179 98.5 -396.5t83.5 -269.5q17 -38 64 -60q37 -17 73 -17l21 1q40 4 51 14q21 19 42 123q7 35 44 248q34 214 39 214q2 0 6 -23q42 -149 106 -297t113 -197q15 -15 44.5 -28t63.5 -18q7 -1 13 -1q26 0 50 15 q30 19 42 63q47 227 111 667t64 545q0 72 -68 107q-22 10 -68 12h-16q-35 0 -53 -6q-17 -8 -25 -21.5t-14.5 -53.5t-13.5 -128q-11 -106 -33.5 -273t-42 -290t-23.5 -127q-161 624 -196 690q-6 10 -15.5 21t-30.5 24.5t-44 18.5t-58 -4t-72 -37q-8 -70 -16 -138 q-14 -95 -30.5 -214t-26.5 -198.5t-10 -86.5q-9 -27 -18 18q-3 11 -5 27q-23 91 -90 418q-28 154 -40.5 196.5t-35.5 59.5q-15 12 -40.5 22.5t-52.5 14.5t-49 -6.5t-26 -37.5z" />
<glyph unicode="X" horiz-adv-x="954" d="M57 162q-8 -27 -8 -49q0 -43 31 -66q37 -35 90 -35h4q55 2 84 41q7 7 49.5 109.5t84.5 207.5t44 109q4 4 7.5 6t5.5 2h2q2 0 53 -86t117 -182.5t100 -118.5q38 -21 78 -21h7q44 2 71 21q22 16 24.5 37t-10.5 49q-37 52 -88.5 129t-138.5 219q-105 172 -105 201 q0 5 59 139q60 136 123 284t66 179q6 21 5.5 37t-5.5 27q-10 19 -39 39q-30 18 -70 24q-5 1 -11 1q-35 0 -66 -33q-51 -102 -78 -170q-16 -35 -36.5 -82.5t-34.5 -80.5t-21 -46q-24 -42 -30.5 -43.5t-18.5 18.5q-2 3 -5 8q-93 198 -139 287q-19 25 -51.5 40t-63 16.5 t-54 -11t-26.5 -37.5q0 -23 58.5 -162.5t117 -270t58.5 -132.5q3 -3 -45.5 -116t-111 -264t-83.5 -224z" />
<glyph unicode="Y" horiz-adv-x="997" d="M62 1387q0 -52 67 -193q15 -29 38 -72.5t35.5 -68t16.5 -35.5q126 -202 137 -223q34 -63 38 -125q1 -19 1 -113q-2 -58 -2 -113q0 -78 5 -150q8 -124 22 -181q19 -60 52 -86.5t93 -26.5q14 0 22 0.5t21.5 4t20.5 10t16 20t12 32.5t3 49t-5 68q-13 92 -21 236 q-5 84 -5 144q0 42 2 73q0 61 4.5 82.5t19.5 52.5q73 96 226 391q43 92 58.5 132t15.5 64.5t-17 45.5q-24 30 -75 37q-14 2 -26 2q-35 0 -61 -14q-6 -4 -10 -8t-9 -9.5t-8 -9.5t-9 -13.5t-9.5 -16.5t-12 -23t-14.5 -27.5t-18 -36t-22 -43.5q-7 -12 -30 -53t-44.5 -79 t-44.5 -77t-37 -59.5t-14 -13.5q0 6 -119.5 211.5t-130.5 216.5q-31 41 -123 41q-6 1 -12 1q-47 0 -47 -44z" />
<glyph unicode="Z" horiz-adv-x="921" d="M49 109q-1 -5 -1 -11q0 -35 35 -64q40 -34 97 -34q36 0 328 73.5t299 80.5q17 0 39 22t22 39q0 23 -31 51.5t-61 34.5q-9 13 -49.5 11t-100.5 -13t-115.5 -24t-95.5 -24l-40 -11q59 101 178.5 378t210 503.5t90.5 232.5q0 10 -3.5 17.5t-13 18t-14.5 17.5q-36 30 -86 36 q-18 2 -45 2q-50 0 -133 -7q-146 -13 -285.5 -37.5t-177.5 -46.5q-29 -16 -29 -42q0 -10 5 -22q16 -41 69 -53q27 -11 48 -14q5 -1 14 -1q29 0 99 8q92 10 257 38q-42 -104 -109 -264.5t-205 -476t-196 -418.5z" />
<glyph unicode="[" horiz-adv-x="612" d="M60 1469q-44 -208 30 -1479q3 -58 61 -86.5t160 -18.5q83 8 143 31.5t83 47.5t18 44q0 4 -5.5 11.5t-13.5 17.5t-12 18q-25 25 -207 37q-4 0 -11 153.5t-15.5 384t-11.5 298.5q-4 95 -11.5 216t-12.5 196.5t-5 78.5q191 19 211 29q23 9 27.5 39.5t-27.5 46.5 q-24 17 -106 22t-179 -14q-72 -8 -93.5 -19.5t-21.5 -45.5q0 -2 -1 -8z" />
<glyph unicode="\" horiz-adv-x="827" d="M84 1440q-10 -33 55 -265t131 -403q78 -216 192 -494t144 -317q13 -22 38 -36.5t54.5 -17t59 27t45.5 90.5q8 28 -3 60t-71 159q-181 391 -471 1255q-3 9 -17.5 19t-36 14t-43.5 0t-43.5 -27.5t-33.5 -64.5z" />
<glyph unicode="]" horiz-adv-x="575" d="M55 -2q0 -50 47 -72t142 -22q230 0 256 26q12 6 15.5 41.5t8.5 211.5q3 74 4 118q0 344 -7 701.5t-21 414.5q-13 77 -66 105q-60 44 -315 -11q-42 -7 -47.5 -11t-5.5 -25q0 -43 31.5 -60.5t109.5 -17.5q41 0 53 -12q24 -23 28 -151q3 -80 3 -366v-663q-2 -30 -3 -44 t-4.5 -32.5t-5 -24.5t-9 -15.5t-11 -11.5t-18 -6t-23 -5t-31.5 -3q-71 -8 -101 -22.5t-30 -42.5z" />
<glyph unicode="^" horiz-adv-x="892" d="M68 1024q0 -42 50.5 -68t98.5 -2q10 4 45.5 47t74.5 93t52 63q5 4 14 12q39 35 52 35q12 1 44 -27l4 -4q14 -12 23 -20q29 -24 58.5 -58t48.5 -60.5t43 -51t45.5 -37t51 -10.5t63.5 22q32 26 18.5 80.5t-55.5 89.5q-47 42 -101.5 103.5t-85 95.5t-77.5 60t-101 26 q-36 0 -61 -14t-103 -84q-86 -77 -148 -170.5t-54 -120.5z" />
<glyph unicode="_" horiz-adv-x="907" d="M51 33q1 -3 2.5 -10.5t2.5 -11t4 -11.5t6.5 -11.5t10.5 -11t15.5 -9.5t22 -7.5t29.5 -5.5t37.5 -2.5t47.5 0.5q34 2 184 8t265.5 11.5t126.5 9.5q9 5 20 15.5t19.5 26.5t7 31.5t-24 32t-65.5 27.5q-33 11 -179 11.5t-268 -9.5q-131 -10 -179.5 -19.5t-67.5 -27.5 q-12 -6 -17 -16t0 -21z" />
<glyph unicode="a" horiz-adv-x="837" d="M47 219q3 -91 125 -156q24 -9 57 -15q23 -4 52 -4h25q44 2 75 19q33 12 66 47t55 80l22 41q5 0 9 -7.5t4 -16.5q30 -69 48 -92t50 -35q27 -8 55 -8q18 0 38 4q48 8 52 33q2 5 2 13q0 23 -18 75q-44 170 -54.5 240t-15.5 200q0 13 1 37.5t0.5 38t-2.5 31.5t-9.5 31.5 t-19.5 25.5q-18 17 -19.5 23.5t8.5 17.5q10 19 10 37q0 47 -73 79q-32 16 -82 18q-10 0 -19 1q-37 0 -63 -8q-33 -12 -62 -35t-88 -82q-18 -18 -41 -46.5t-59 -89.5t-64 -129.5t-48 -166.5q-18 -89 -17 -182v-19zM268 248h-1q-4 0 -4 20q0 23 5 71q6 55 13 73q14 14 24 63 q19 61 52.5 131.5t62.5 102.5q7 10 16 18.5t14 12.5l5 3q-2 -2 0 -22t-1.5 -58t-8 -82.5t-18.5 -95t-33 -95t-52 -83t-74 -59.5z" />
<glyph unicode="b" horiz-adv-x="796" d="M47 1138q-1 -64 -1 -148q0 -140 3 -337q6 -431 10.5 -513.5t22.5 -100.5q30 -25 65 -31q18 -3 46 -3q26 0 59 3q27 4 66.5 17.5t91 40t106 74.5t94.5 108q19 22 38 50t43.5 79.5t37.5 104.5q11 44 11 100v22q-2 68 -29 133q-10 25 -32 48.5t-59 40.5q-38 16 -82 18 q-4 0 -9 1q-41 -1 -95 -21q-60 -22 -121 -70l-3 -3q-23 -28 -28 -26q-7 3 -13 86v4l-1 16q0 479 -32 553q-6 16 -13.5 24.5t-25.5 21.5q-42 20 -73 20q-24 0 -42 -12q-17 -12 -24.5 -70.5t-10.5 -229.5zM306 280q-4 16 7 52q14 70 43.5 133.5t61 102.5t58.5 62t40 23v-47 q-8 -55 -16 -91t-25.5 -84t-49.5 -85.5t-79 -66.5q-34 -26 -40 1z" />
<glyph unicode="c" horiz-adv-x="798" d="M49 306q3 -104 55 -165q90 -90 245 -104q26 -2 52 -2q126 0 236 57q76 43 82 92v8q0 44 -62 78q-36 12 -72 13t-61 -13q-33 -17 -51 -25t-52.5 -19.5t-61.5 -9.5t-48 17q-10 18 -10 69q1 6 1 14q2 64 15 110q27 133 121 262q102 135 121 135q3 0 9 -2t16 -6t18 -6 q25 -14 66 -15.5t55 9.5q15 11 18.5 38.5t-6.5 53.5q-3 15 -18 33.5t-43.5 37t-79.5 28.5q-37 8 -80 8q-16 0 -33 -1q-95 -23 -178 -106q-85 -74 -164 -213q-41 -86 -67 -178q-23 -83 -23 -176v-22z" />
<glyph unicode="d" horiz-adv-x="823" d="M57 152q2 -2 14 -24t20.5 -34.5t31.5 -33t48.5 -31t68.5 -17.5q30 -5 65 -5q15 0 31 1q10 -1 20 -1q46 0 111 21q80 26 106 52q12 6 16.5 6t16.5 -6q25 -19 77.5 -19t64.5 19q24 24 26 46v8q0 26 -10 97q-41 179 -52.5 282.5t-11.5 305.5q0 15 1 71v52v43q0 39 -1 100 t-3 104.5t-5 88t-8.5 71t-13.5 33.5q-26 36 -74 52q-23 8 -41 8q-21 0 -37 -10q-33 -16 -33 -33q-6 -13 -18 -196t-12 -281q0 -66 -4 -78.5t-29 -24.5q-56 -30 -132 -103t-122 -143q-116 -164 -116 -344q0 -38 5 -77zM277 209.5q0 25.5 13 70t31.5 91t45.5 95.5t55 83 q39 39 49 39q6 -22 6 -47q0 -58 25 -230q2 -6 2.5 -9.5t-0.5 -7.5t-3 -6.5t-7.5 -8t-10.5 -9.5t-16 -13t-21 -17q-46 -34 -92 -52q-35 -14 -55 -14q-7 0 -12 2q-10 8 -10 33.5z" />
<glyph unicode="e" horiz-adv-x="761" d="M50 538q-1 -15 -2 -31q0 -37 6 -85q8 -70 30 -133t77 -121t136 -86q73 -30 156 -34q14 -1 26 -1q67 -1 113 17q56 20 55 59q0 13 -22 35.5t-47 36.5q-3 1 -36.5 1t-68.5 6t-75.5 19.5t-71.5 47.5t-41 85q-5 22 -2 23q3 2 20 2q19 2 39.5 5.5t60 15.5t74 28.5t75.5 48 t71.5 71.5t54 100.5t31.5 133.5q-3 19 -8 36.5t-17 41.5t-29 42.5t-45 34.5t-64 23q-22 4 -48 4q-18 0 -38 -2q-51 -4 -112 -22q-98 -36 -173.5 -121t-113.5 -207q-7 -28 -11 -74zM291 553q27 71 39 102q18 27 51.5 68t52.5 53l25 19q15 13 20 8.5t0 -27.5q0 -59 -71 -133 q-24 -27 -68 -61t-49 -29z" />
<glyph unicode="f" horiz-adv-x="735" d="M51.5 560q-10.5 -26 3 -51t49.5 -34q19 -12 70 -12t80 12q6 3 10 -10q6 -17 18 -108l17 -119q23 -146 33.5 -186.5t29.5 -59.5q26 -30 68 -42q24 -7 46 -7q18 0 34 5q49 12 49 41q0 30 -29 232q-30 207 -30 260v8q-6 29 -2.5 35.5t26.5 12.5q32 16 78 16q53 12 65 44 q3 9 3 19q0 23 -21 48q-22 22 -52.5 30t-80.5 8q-29 0 -35 7t-12 43q0 1 -7.5 75t-12.5 151q-2 30 -2 61q0 47 5 95q7 80 31 107q6 19 9.5 19t15.5 -19q11 -11 26.5 -19.5t45.5 -14.5t61 10q39 27 39 70q0 16 -4 33q-19 67 -90 103q-41 19 -96 23q-13 1 -26 1q-40 0 -75 -9 q-110 -34 -149 -221q-4 -29 -4 -136q0 -53 1 -126q3 -219 9 -275q5 -15 -1 -24t-42.5 -23t-114.5 -33q-26 -14 -36.5 -40z" />
<glyph unicode="g" horiz-adv-x="954" d="M50.5 412q0.5 -26 4.5 -67.5t21 -76.5t44.5 -65t78.5 -43q28 -7 60 -7q27 0 58 5q76 13 156 52.5t122 73.5l42 33l5 -35q5 -34 11 -84t10 -108q3 -41 3 -84v-32q-2 -58 -11 -97q-13 -50 -35.5 -82t-52.5 -46.5t-58 -20.5t-65.5 -12.5t-60.5 -14.5q-46 -14 -60 -34t-1 -54 q14 -40 64 -59q39 -14 94 -14q17 0 36 1q62 1 112 11.5t96.5 34t80 60.5t57.5 93.5t34 131.5q7 51 7 115q0 29 -1 60q-5 101 -25 225q-24 175 -24 273q0 78 15 108q11 18 13 49v11q0 26 -7 54q-8 35 -37 70t-75 56q-95 57 -184 57q-42 0 -82 -12q-61 -14 -149.5 -77 t-133.5 -128q-2 -3 -27.5 -36.5t-48 -65.5t-48 -81t-36.5 -91q-3 -21 -2.5 -47zM280 359q0 33 13 73q5 20 21 56.5t48.5 91t91 111.5t130.5 95q15 7 38.5 10.5t24.5 -1.5q-8 -35 -26 -70q-43 -115 -160 -258q-34 -40 -94 -90.5t-74 -50.5q-13 0 -13 33z" />
<glyph unicode="h" horiz-adv-x="925" d="M49 1307q-2 -37 -2 -91q0 -145 12 -411q16 -366 41 -608q6 -77 10.5 -94.5t24.5 -43.5q45 -38 105 -43q8 -1 15 -1q48 0 71 28q24 24 24 68q53 288 160 491q24 40 43.5 37t30.5 -64q1 -11 8.5 -59t9.5 -63t8 -69q6 -50 6 -73l-1 -11q0 -24 3 -77q1 -23 1 -42 q0 -32 -3 -52l8 -15q7 -14 12 -20.5t17 -19.5t27.5 -18.5t36.5 -10t51 -1t66 14.5q25 11 32 32.5t0 53.5q-16 32 -16 129q-6 147 -32.5 305.5t-53.5 211.5q-1 2 -9 15.5t-12.5 19.5t-15.5 20.5t-19.5 22.5t-24 19.5t-29.5 17t-35 11t-42.5 5.5t-48.5 -4.5t-57 -14.5 q-21 -13 -40 -33.5t-31.5 -38t-57.5 -83.5q-33 -66 -43 -67q-4 -1 -8 7q0 39 -14.5 292t-20.5 310q0 87 -16 103q-20 31 -75 43q-19 4 -35 5q-29 0 -46 -14q-20 -6 -24.5 -23t-10.5 -97z" />
<glyph unicode="i" horiz-adv-x="380" d="M82 342q4 -152 18 -225q19 -69 78 -103q13 -4 36.5 -7.5t54 -4t54.5 12t29 38.5q5 45 4.5 55t-8 45.5t-10.5 61.5q-7 54 -23 227q-5 113 -11.5 163t-16 69.5t-33.5 36.5q-24 11 -68 17q-16 2 -29 3q-21 0 -34 -6q-39 -19 -39 -139q-3 -53 -3 -125q-1 -54 1 -119z M91 930.5q0 -4.5 1.5 -26t6.5 -31.5t16 -25.5t29 -21.5q17 -6 45 -6h3q27 0 62 9q12 1 25 15.5t20.5 37t7.5 47.5t-16 51t-49 44q-26 14 -68 14h-3q-40 0 -60 -14q-17 -17 -19 -72q-1 -17 -1 -21.5z" />
<glyph unicode="j" horiz-adv-x="448" d="M-350 -356q0 -28 30 -62t66 -49q20 -6 55 -7h11q32 0 74 4q49 6 100 29t96.5 59t79 101.5t43.5 151.5q1 26 1 57q0 162 -32 444q-37 333 -98 539q-29 29 -82 41q-24 6 -44 6q-25 0 -44 -8q-44 -6 -44 -76q0 -69 36 -319q8 -60 21.5 -153t21.5 -150t16 -133q6 -61 6 -104 v-21q-2 -49 -10 -100.5t-30 -86.5t-56 -57q-21 -24 -42.5 -32.5t-78.5 -14.5q-60 0 -81 -12t-15 -47zM-174 1176q0 -31 25 -57t67 -32q44 -15 76 -15q30 0 48 14q36 29 36 120q6 34 -10.5 53.5t-61.5 34.5q-35 15 -53 15t-53 -15q-74 -31 -74 -118z" />
<glyph unicode="k" horiz-adv-x="878" d="M60 1171q2 -142 14 -440v-457q0 -78 0.5 -110.5t5 -57t9.5 -30t20 -17.5q17 -17 45 -31t70 -14t75 29q11 10 15 18.5t7 38t3 90.5v125q41 -14 82 -41q135 -86 247 -110q40 -9 72 -8q57 0 88 28q9 5 16 19t6.5 32.5t-10.5 35.5t-41.5 29.5t-81.5 14.5q-22 1 -134.5 68 t-112.5 74q-1 0 14 14t46 50t66 85.5t78 133.5t78 182q-7 36 -53 62q-38 21 -77 21q-9 0 -19 -1q-31 -6 -55.5 -29t-61.5 -80q-108 -186 -141 -205q-12 -20 -15 -20q-2 0 -8 12q0 1 -2 32.5t-4 82.5t-2 98q-20 295 -40.5 388.5t-68.5 117.5q-19 11 -54 13t-46 -5 q-20 -15 -26 -55q-5 -33 -5 -133q1 -23 1 -50z" />
<glyph unicode="l" horiz-adv-x="407" d="M49 981q0 -276 15 -465t49 -362q10 -67 34 -91q28 -34 81 -45q19 -4 36 -4q31 0 58 13q26 7 30 45q1 13 1 31q0 37 -5 96q-28 188 -50 444t-22 410q-18 276 -24 304q-4 20 -12 32q-20 33 -75 45q-20 4 -37 4q-30 0 -52 -13q-21 -5 -27 -103q-3 -49 -3 -134t3 -207z" />
<glyph unicode="m" horiz-adv-x="1114" d="M45 859q0 -16 5 -66q10 -122 18 -242q3 -78 10 -172t11.5 -154t4.5 -73q0 -43 9 -58.5t44 -27.5q31 -12 73 -14q6 0 11 -1q34 0 52 8q13 4 20 29.5t21 116.5q11 74 41 170q30 97 56 157q24 57 29 56h1q43 -113 51 -207q5 -42 7.5 -80.5t2 -54t3 -31t11.5 -22t25 -15.5 q31 -9 73 -10h9q37 0 61 8q6 4 16.5 47t22.5 100.5t25.5 114t29.5 94t31 33.5q19 -46 19 -231v-43t-0.5 -34t0 -25.5t1 -20t2 -14.5t3 -11.5t5.5 -8t8 -8.5t11 -9q34 -34 85 -44q14 -3 27 -2q32 0 54 17q16 23 20 75q2 23 2 60q0 46 -3 113q-2 21 -4.5 74.5t-6 92t-11.5 93 t-24.5 93.5t-42 76.5t-67.5 59t-96 25.5q-8 1 -15 1q-30 0 -50 -10q-26 -12 -54 -40q-47 -44 -59 -44q-11 1 -31 44l-6 12q-18 48 -72 74q-41 20 -80 20q-13 0 -26 -2q-32 -18 -41 -18q-5 -3 -22 -21t-37.5 -40.5t-26.5 -28.5q0 -1 -1 -3q-20 -50 -27.5 -51.5t-25.5 25.5 q-4 6 -14 22l-6 9q-10 20 -38 35.5t-60 15.5q-7 1 -12 1.5t-9.5 0t-7.5 -0.5t-7 -2t-5.5 -3l-6 -4t-6.5 -4q-10 -6 -10 -22z" />
<glyph unicode="n" horiz-adv-x="851" d="M52 492q0 -352 11 -367q1 -1 5.5 -7.5t6 -9t8 -9.5t10.5 -9.5t14 -9t18 -7t22.5 -5.5t28 -3t33.5 1q39 12 54.5 29t29.5 79q6 26 16 100t22 141t30 137.5t48 115t68 47.5q11 -9 16.5 -20.5t9 -34t5 -46.5t6.5 -72.5t12 -97.5q24 -218 36 -254q5 -15 11 -24 q9 -13 24 -26.5t43 -29.5q22 -13 52 -13q8 1 17 1q40 4 82 35q10 10 11 17.5t1 42.5q-1 6 -18.5 135t-33.5 239.5t-22 134.5q-71 278 -278 279q-13 0 -27 -2q-58 -13 -123 -88q-32 -32 -37 -35t-16 2q-40 40 -106 41h-3q-62 0 -76 -35q-11 -20 -11 -372z" />
<glyph unicode="o" horiz-adv-x="802" d="M51.5 331.5q2.5 -29.5 5.5 -62.5t19 -67.5t39 -61.5t64.5 -44.5t96.5 -17.5q20 -3 42 -3q20 1 43 3q47 6 104.5 29t108.5 62t95.5 109.5t67.5 161.5q13 60 13 140t-13 129q-16 52 -33.5 89t-47.5 74t-70.5 60t-102 38t-141.5 17q-43 -14 -77.5 -49.5t-78.5 -116.5 q-124 -207 -133 -442q-4 -18 -1.5 -47.5zM278 392q0 60 13 108q23 97 77 201t78 104q13 0 19 -6q37 -45 47 -139q3 -29 4 -57q0 -61 -16 -114q-3 -9 -9 -31t-10 -34t-12.5 -33t-17 -34t-22.5 -30.5t-30.5 -28.5t-40 -22t-51.5 -18q-13 -3 -21 36q-8 37 -7 92q-1 3 -1 6z" />
<glyph unicode="p" horiz-adv-x="835" d="M37 217q0 -10 6 -33q16 -46 16 -247q8 -271 14 -304q3 -22 13 -41q23 -30 64 -46q29 -13 63 -13q12 0 25 2q56 0 73 18t17 72q0 8 -7.5 67.5t-14.5 139.5q-4 55 -4 102q0 22 1 43q1 17 2 37.5t1 29.5t1 22t1.5 17t3.5 11.5t4.5 9t7.5 6t10 6.5l14 7q149 41 254.5 145.5 t149.5 233.5q19 46 19 105q0 4 -1 9q-1 64 -18 113q-29 63 -65 104t-95 68t-139 31q-24 3 -54 3q-5 0 -10 -1q-36 0 -49.5 -1t-20.5 3q0 24 -38 46.5t-79 27.5h-17q-30 0 -52 -13q-10 -10 -47 -159q-6 -44 -16.5 -240t-10.5 -262q0 -29 -5 -57.5t-11 -34.5q-6 -17 -6 -27z M303 393q0 13 8 169.5t8 158.5q2 7 5 11t9 6.5t12.5 3.5t18.5 1t23 -0.5t30 -1t36 -0.5q71 0 88 -49q4 -24 4 -47q0 -53 -21 -106q-29 -76 -121 -174q-32 -33 -59 -33q-7 0 -14 3q-28 10 -28 44q0 7 1 14z" />
<glyph unicode="q" horiz-adv-x="901" d="M51 350q-3 -26 3 -60.5t24.5 -74t46.5 -71t75 -48.5q33 -13 71 -13q17 0 36 3q53 5 86 11.5t74.5 22.5t44.5 17q21 16 26 9q10 -12 15 -161q1 -19 2 -61q0 -169 2 -205.5t14 -68.5q2 -2 13.5 -19t26.5 -33t38.5 -33.5t58.5 -26.5q27 -8 58 -8q10 0 20 1q116 0 154 84 q3 12 3 24q0 32 -23 60q-33 39 -91 45q-26 6 -29 46q-1 16 -1 58q0 71 3 218q1 19 1 28q6 297 12 370.5t31 135.5q2 7 9.5 28t12 37.5t4.5 28.5q-2 32 -14.5 50.5t-29.5 43.5t-25 68q-12 19 -39.5 42t-74.5 47t-103 28q-10 1 -20 1q-48 0 -105 -16q-79 -27 -162 -110 q-215 -198 -248 -498zM300 326q3 57 24 118q27 86 94.5 185t136.5 149q17 11 26.5 15.5t15 4.5t7.5 -4.5t2 -15.5q0 -35 -8 -43q-16 -32 -16 -84q-10 -74 -39.5 -140t-65 -109t-71.5 -75t-60.5 -46.5t-30.5 -14.5q-16 2 -16 43q0 8 1 17z" />
<glyph unicode="r" horiz-adv-x="741" d="M52 859v-13q0 -23 3 -76q0 -44 29.5 -321t34.5 -287q19 -52 55 -73q26 -15 51 -15q9 0 18 2q34 8 60 21t31 24q0 2 3 20.5t7.5 50.5t7.5 62q6 47 15.5 136t14 121t13.5 84t20 84t27 62q6 8 15 21.5t15.5 22.5t16 20.5t19.5 18t22.5 11.5t28 4.5t33.5 -5.5q13 -2 24 -2 q46 0 68 30q6 12 6 26.5t-7.5 34t-37 40t-78.5 36.5q-32 10 -67.5 10t-73.5 -10q-45 -21 -90.5 -62t-71.5 -93q-19 -37 -23 -37q-4 1 -12 27q-9 18 -16 24t-27 16q-27 18 -66 20.5t-57 -11.5q-9 -9 -11 -24z" />
<glyph unicode="s" horiz-adv-x="841" d="M39 428q0 -26 11 -53t33.5 -53t66.5 -40q29 -9 64 -8q18 0 38 2l256 37q8 -4 -20.5 -31.5t-59.5 -48.5q-50 -31 -80 -41q-22 -8 -46 -7q-9 0 -19 1q-3 1 -15.5 3t-17.5 2.5t-15 1t-15 -3t-11.5 -8.5t-10 -14.5t-5.5 -23.5q-4 -23 9.5 -47.5t37.5 -38.5q47 -34 112 -34 q42 -1 91 13q127 36 235 144q59 56 68 120q2 11 2 22q0 50 -34 91q-42 49 -122 64q-2 0 -6 1q-41 7 -84 7q-108 0 -226 -45q3 7 9 28t13 36.5t21 34.5q52 78 101.5 130t111.5 93q67 41 91.5 51t60.5 4q24 -4 46 2t34.5 20t14 32.5t-18 43t-58.5 48.5q-24 14 -74 15h-9 q-44 0 -76 -9q-160 -46 -303 -181.5t-189 -285.5q-12 -36 -12 -74z" />
<glyph unicode="t" horiz-adv-x="798" d="M-2 848q0 -10 14 -23q36 -60 111 -60q16 0 33 3q35 0 42 -31.5t14 -215.5q1 -21 1 -32v-29v-74t1 -64t3 -58.5t5.5 -48.5t9.5 -44.5t14 -35.5t19.5 -32t26.5 -24.5t33.5 -22t41.5 -15.5q59 -16 113 -16q44 1 84 11q90 24 89 91q0 44 -40 75t-103 31q-29 -8 -35.5 -3.5 t-13.5 40.5v316q0 215 10.5 254.5t74.5 60.5h1q17 8 39.5 18.5t33 15t24 11.5t19 10.5t12.5 9t10 10.5t5 11q4 11 4 24.5t-7 31.5t-26 30q-19 11 -53 19q-17 4 -39 4q-23 0 -51 -4q-50 -7 -58.5 11.5t-8.5 134.5v7q0 247 -27 305q-12 36 -58 56q-33 15 -63 14q-11 0 -22 -2 q-31 -17 -31 -57q-13 -41 -21 -176t-8 -273v-14q0 -82 -5.5 -97t-39.5 -22h-2q-148 -67 -162 -107q-14 -14 -14 -24z" />
<glyph unicode="u" horiz-adv-x="886" d="M52 519q-3 -74 -3 -134q0 -80 6 -133q10 -74 24.5 -110.5t47.5 -75.5q69 -58 173 -58q47 0 101 12q42 22 73.5 58.5t70.5 107.5l14 23q6 0 29 -23q28 -39 78 -61q39 -17 79 -17q11 0 23 1q42 1 60 35q6 12 6 24q0 23 -23 47q-20 20 -37 56q-16 37 -32 101q-11 46 -12 114 q0 26 2 56q6 106 36 234q10 75 10 90.5t-10 32.5q-22 37 -72 57q-32 12 -64 13l-36 -4q-28 -11 -39.5 -26.5t-17.5 -53.5q-8 -69 -21.5 -142t-41 -185.5t-73.5 -194.5t-102 -105h-1q-7 0 -9 88q-1 46 -1 100t1 115q2 122 10 195q10 108 10 148v7q-1 37 -18 54q-27 27 -81 33 q-13 1 -24 1q-35 0 -47 -14q-17 -17 -34.5 -72.5t-28.5 -121.5q-18 -99 -26 -272z" />
<glyph unicode="v" horiz-adv-x="757" d="M63 870q21 -112 148 -626q49 -176 59 -195q24 -47 102 -57q16 -2 30 -2q53 0 73 33q12 12 12 61q98 497 166 680l54 164q0 13 -10 30t-33.5 35.5t-63.5 23.5q-12 1 -24 1q-32 0 -74 -8q-3 -3 -13.5 -12.5t-13.5 -12.5q-8 -19 -60 -177.5t-59 -182.5q-4 -24 -6 -24 q-5 0 -30 101q-4 14 -9 35q-66 221 -94 238l-6.5 6.5l-7.5 7.5t-8.5 7.5t-11 7.5t-12.5 5.5t-15 4t-17 1t-20.5 -1.5t-23.5 -6t-27 -10q-14 -8 -14 -46q0 -31 9 -81z" />
<glyph unicode="w" horiz-adv-x="1001" d="M48 665q-2 -54 -1 -102q0 -96 6 -166q20 -228 64 -301q24 -52 68 -74q36 -17 87 -17q12 0 25 1q130 0 180 238l5.5 22t4.5 11.5t4.5 5.5t7 -5.5t9.5 -11.5t14 -22q94 -153 217 -181q17 -2 33 -2q115 0 160 113q12 32 15 242v61q0 182 -15 377q-6 47 -12.5 68t-17 32.5 t-34.5 26.5q-38 15 -81 17h-8q-38 0 -64 -17q-21 -21 -21 -31q0 -58 8 -162q7 -98 7 -301q0 -143 -7 -143q-3 0 -8 8q-24 42 -45.5 136.5t-30.5 197.5q-3 32 -7.5 50t-18.5 38t-44 28q-27 8 -67 7h-10q-46 0 -60.5 -15.5t-35.5 -80.5q-5 -15 -32 -133t-40 -160 q-14 -34 -24 -34q-13 0 -19 63q-3 30 -7 241q0 28 -1 47q-5 67 -7.5 85.5t-11.5 31.5q-2 1 -15 14.5t-26.5 22t-33 15t-43.5 -3.5t-49 -36q-14 -38 -18 -201z" />
<glyph unicode="x" horiz-adv-x="847" d="M80 807q3 -20 15 -44.5t30.5 -50t38 -49.5t43 -48.5t38.5 -40t31 -30.5l17 -16q8 -8 16.5 -18t12.5 -16l4 -7q0 -1 -62.5 -189.5t-62.5 -199.5q5 -15 31 -38.5t49 -32.5q14 -4 30.5 -5.5t40.5 5t45 22t42.5 50t35.5 83.5q24 75 34 83q11 8 39 -22q5 -7 17 -20 q52 -56 74.5 -72t58.5 -26q18 -3 34 -3q30 0 54 10q38 16 39 50q0 29 -12 41q-2 5 -62 73t-117 133t-54 65q0 1 32 104.5t64.5 214.5t32.5 131q3 23 -17 54q-20 30 -56 42q-9 3 -18 3q-31 0 -71 -29q-6 -6 -19.5 -25.5t-19.5 -25.5q-3 -12 -27.5 -80.5t-47.5 -132.5t-23 -66 q0 -1 -7 7t-19.5 21.5t-29.5 30.5t-37.5 35t-42.5 34.5t-45.5 29t-46 19t-45.5 3t-41 -17.5q-7 -7 -11 -21.5t-5 -17.5z" />
<glyph unicode="y" horiz-adv-x="909" d="M55 608q0 -215 40.5 -324.5t131.5 -154.5q17 -11 40.5 -20t63.5 -14q15 -2 31 -2q24 0 48 5q39 8 85 41.5t83 91.5q4 6 8 13l4 6v-1l4 -1q3 -13 3 -87.5t-6 -171t-13 -116.5q-4 -10 -11.5 -33.5t-12.5 -35.5t-19 -30.5t-32.5 -29t-51.5 -20.5t-78 -15q-102 -11 -139 -29 q-28 -14 -28 -40q0 -8 3 -17q43 -81 223 -92q19 -2 39 -2q33 0 67 5q55 9 113.5 39t104 78.5t74.5 132.5t30 191q2 32 2 74q0 108 -12 282q-15 241 -41 455q-6 58 -48.5 93.5t-107.5 35.5q-59 0 -84.5 -21.5t-25.5 -72.5q0 -18 -8 -70t-25 -123t-39.5 -135t-55.5 -106 q-29 -38 -61 -38q-4 0 -8 1q-21 3 -31.5 42t-10.5 118q-1 19 -1 37q0 52 1 85q2 44 7 130q3 30 3.5 55.5t-0.5 38.5t-2 23.5t-1 11.5q-20 38 -91 53q-25 5 -45 5q-35 0 -52 -17q-35 -35 -45 -88q-5 -13 -8.5 -24t-6.5 -19.5t-4.5 -21.5t-2.5 -20t-1 -27v-31v-42.5v-50.5z " />
<glyph unicode="z" horiz-adv-x="925" d="M29 756q0 -24 30.5 -47t69.5 -29q7 -1 16 -1q35 0 87 18q66 23 113.5 46t47.5 21q4 0 -28.5 -66t-67.5 -133t-39 -71q-4 -7 -11 -19t-25 -50t-31.5 -75.5t-24.5 -89.5q-10 -48 -10 -90v-8q15 -57 80 -84q38 -16 79 -16q29 0 58 8q22 7 98.5 40.5t170.5 79t159 94.5 q52 39 52 64q0 6 -3 12q-14 39 -62 65q-35 19 -70 19q-12 0 -24 -2q-53 -26 -115.5 -54.5t-98.5 -43.5l-36 -16q-5 5 53.5 124.5t86.5 170.5q69 119 69 190q0 27 -10 47q-1 2 -3 5q-9 16 -16.5 25.5t-28.5 25.5t-47 22q-25 6 -68 6h-6q-48 0 -107 -14q-137 -30 -220 -76 q-102 -47 -118 -98z" />
<glyph unicode="|" horiz-adv-x="323" d="M56.5 -65q0.5 -58 11.5 -78q17 -35 70.5 -52t88.5 0q20 5 29 78.5t16 317.5q14 486 -8 1282q-2 62 -26 92q-53 79 -134 51q-26 -3 -33.5 -38t-9.5 -132q11 -203 12.5 -645t-12.5 -616q-5 -202 -4.5 -260z" />
<glyph unicode="~" horiz-adv-x="923" d="M64 601q1 -23 18 -40q49 -49 113 -49q18 0 62.5 32.5t72.5 30.5q30 -2 84 -54.5t73 -61.5q20 -14 52 -24.5t83 -8.5t97 25q81 44 132.5 115.5t22.5 115.5q-69 113 -188 27q-2 -1 -12.5 -21t-23.5 -39.5t-37 -31.5t-52 -3q-27 9 -43 25t-22.5 31.5t-25 34.5t-48.5 32 q-31 18 -76.5 25.5t-87.5 1.5q-37 -7 -73 -25t-62 -40.5t-43 -48.5t-16 -49z" />
<glyph horiz-adv-x="102" />
<glyph unicode="&#xa1;" horiz-adv-x="436" d="M65.5 1325.5q-2.5 -23.5 4.5 -37.5q5 -34 39.5 -59.5t77.5 -31.5t85 5q22 4 28 15.5t15 66.5q15 43 -26 99t-129 55q-33 -6 -55.5 -25.5t-29.5 -41.5t-9.5 -45.5zM106 934q24 -159 29 -262.5t-4 -335.5q0 -34 -2 -76t-2.5 -66t-1 -53.5t2 -45t6.5 -34t13 -27t21.5 -18 t32 -12.5t43.5 -5t57 -1q36 19 49 68q31 81 44.5 287t-6.5 414t-73 269q-10 8 -35 17t-57 10.5t-60.5 -6.5t-45.5 -39.5t-11 -83.5z" />
<glyph unicode="&#xa2;" horiz-adv-x="944" d="M67 623q23 -73 101 -113q98 -37 199 -53q24 0 31 -28t22 -183q7 -123 16.5 -169t26.5 -73q52 -88 158 -74q54 0 67.5 22.5t5.5 94.5q-3 24 -18.5 133t-26.5 194.5t-8 102.5q3 20 37.5 33t76 20t84 26t56.5 48q15 37 -8 65t-73 36.5t-120 -5.5q-14 -4 -29.5 -7t-24.5 -4 l-9 -1q-6 6 -13.5 93.5t-7.5 107.5q13 -3 34.5 -6.5t66.5 -1.5t67 18q31 33 4 68t-98 59q-5 2 -30.5 5t-43.5 13.5t-20 34.5q-17 174 -43 211q-16 25 -81.5 38.5t-98.5 -7.5q-21 0 -21 -158v-67.5t-2.5 -44.5t-5 -31.5t-11.5 -18t-17 -15.5t-27 -13q-54 -31 -114.5 -89.5 t-84.5 -99.5q-40 -88 -17 -161zM278 665.5q-18 40.5 19 96.5q16 16 30.5 25t26.5 7.5t17 -16.5q0 -10 4 -55t4 -55q0 -32 -4.5 -37.5t-28.5 -5.5q-50 0 -68 40.5z" />
<glyph unicode="&#xa3;" horiz-adv-x="802" d="M67.5 745.5q20.5 -26.5 104.5 -81.5q7 -7 -24.5 -197t-69.5 -373q-4 -21 21.5 -45.5t62.5 -38.5q72 -15 139 37q40 22 74 20.5t104 -28.5q143 -44 213 -29q66 25 66 66q0 36 -36 64t-85 28q-14 -4 -52 13t-93.5 36t-106.5 16q-28 7 -31.5 16t4.5 50q3 11 15 73.5t22 94.5 q3 19 8 49q15 85 23 96q6 8 28 11q9 1 15 2q141 0 186 28q15 12 14 37.5t-22 46.5q-49 62 -149 47h-56q0 28 10.5 133t42.5 235t76 136q21 13 35 14.5t41 -6.5q63 -14 83.5 20t-28.5 75q-20 26 -53.5 41t-86.5 17.5t-120 -22.5q-34 -13 -71 -48t-60 -72q-35 -71 -53 -141 t-31 -195q-13 -129 -19 -145q-7 -21 -31 -23h-34q-52 11 -73 -10q-23 -21 -2.5 -47.5z" />
<glyph unicode="&#xa8;" horiz-adv-x="641" d="M76 1217.5q0 -46.5 14 -66.5q21 -32 38 -42q31 -19 89 -13q45 8 66.5 53t-2.5 92q-6 12 -13 20.5t-12.5 14.5t-15 10t-14.5 6t-16.5 3t-16.5 1h-19.5h-19.5q-46 0 -64 -18q-14 -14 -14 -60.5zM395.5 1197.5q-3.5 -41.5 24.5 -70.5t80 -25q41 0 68.5 15.5t33.5 43.5 q18 48 7 73t-54 46q-33 14 -69 12t-56 -22q-31 -31 -34.5 -72.5z" />
<glyph unicode="&#xa9;" horiz-adv-x="5349" d="M4207 729q-6 -64 14.5 -132t57.5 -121t82.5 -92.5t88.5 -53.5q20 -14 58 -29.5t95.5 -27.5t120 -15t132.5 13.5t133 53t121 109.5t96 176q11 23 17.5 70t6.5 111.5t-19.5 135t-54.5 134.5t-104.5 116t-164.5 74q-61 29 -171 29t-171 -29q-133 -43 -228.5 -191.5 t-109.5 -330.5zM4386.5 757.5q7.5 84.5 57.5 190.5q27 54 73 94.5t93 58.5t95.5 25t80.5 -6q57 -12 103 -36t73.5 -52.5t48.5 -61.5t29 -63.5t14.5 -58.5t4.5 -46.5t0 -27.5q-6 -97 -43 -169.5t-90.5 -110t-118 -55.5t-127 -11.5t-117 28t-88.5 56.5q-50 52 -73 106.5 t-15.5 139zM4485 666q9 -53 41 -91q56 -56 153 -67t179 31q47 27 51.5 56.5t-37.5 53.5q-57 17 -82 0q-79 -41 -121 -10q-23 6 -37 46.5t-4 96t52 92.5q18 23 45.5 38.5t36.5 15.5q2 0 5.5 -1.5t9.5 -4t11 -4.5q14 -9 40 -9t34 6q9 6 11.5 23.5t-3.5 32.5q-3 13 -17.5 28 t-51.5 28t-87 9q-7 -2 -24 -4.5t-25 -5t-21.5 -10t-25.5 -19.5q-52 -47 -100 -129q-23 -49 -32.5 -99t-0.5 -103z" />
<glyph unicode="&#xad;" horiz-adv-x="716" d="M53.5 533q-1.5 -24 18.5 -50q33 -45 106 -58t242 -1q166 16 190 22q30 9 39 29q39 39 0 78q-27 33 -83 47t-120 2q-32 0 -204 -16q-161 -17 -162 -17q-25 -12 -26.5 -36z" />
<glyph unicode="&#xb0;" horiz-adv-x="643" d="M51 1118q-7 -70 17.5 -114t87.5 -76q16 -12 51 -25t88 -19t104.5 3t101 51.5t77.5 116.5q7 15 11 47t-1 76.5t-21.5 86.5t-56.5 78t-100 50q-32 15 -90.5 15t-90.5 -15q-70 -23 -120 -101t-58 -174zM239 1116.5q1 33.5 17 67.5q20 39 38 54.5t40 8.5q63 -18 63 -112 q0 -28 -43.5 -58.5t-93.5 -29.5q-7 0 -14.5 18t-6.5 51.5z" />
<glyph unicode="&#xb4;" horiz-adv-x="675" d="M72.5 1140.5q3.5 -8.5 17.5 -22.5q53 -28 123.5 -18.5t139.5 35.5t132 62.5t100.5 62.5t45.5 34q25 38 -0.5 77.5t-65.5 37.5q-39 -2 -70 -14t-157 -78q-219 -115 -241 -131q-14 -10 -23 -23q-5 -14 -1.5 -22.5z" />
<glyph unicode="&#xb7;" horiz-adv-x="342" d="M90.5 577q-3.5 -45 27.5 -76.5t87 -27.5q45 0 75.5 18t36.5 48q19 54 7.5 80t-58.5 49q-36 16 -76 13t-61 -24q-35 -35 -38.5 -80z" />
<glyph unicode="&#xb8;" horiz-adv-x="550" d="M82 -10q0 -40 31 -69t106 -58q12 -3 24.5 -7t27 -10.5t23.5 -15t12 -17.5t-5 -20.5t-29 -23.5q-8 -8 -40.5 -22t-63.5 -21q-159 -47 -33 -127q44 -25 108 -21.5t124 22.5t106 56.5t53 79.5q7 63 -37 127t-122 104q-14 4 -27 12.5t-19 14.5l-6 6q1 22 11 53 q33 105 -27 133q-23 11 -44 11.5t-41 -9t-35 -21t-34 -30.5q-63 -63 -63 -147z" />
<glyph unicode="&#xbf;" horiz-adv-x="757" d="M74 269q-1 -31 6 -70t32 -73.5t64.5 -62t109 -40t160.5 -3.5q134 13 216 74t63 127q-3 12 -12.5 29t-28 33t-41 23t-54 -5t-63.5 -47q-44 -47 -151 -59q-36 -6 -49 1t-7 33q9 29 80 129q127 152 182.5 247.5t55.5 166.5q0 65 -49 143.5t-103 98.5q-18 7 -24.5 9.5 t-27.5 8t-32 5t-29 -4.5t-28.5 -15t-20 -31.5t-12.5 -49.5q-2 -18 7.5 -45.5t18 -56t10 -63.5t-20 -80t-68.5 -93q-77 -99 -114 -153.5t-44 -70.5t-18 -50q-7 -24 -8 -55zM291 1270q27 -127 213 -99q47 23 47 86q6 58 -16.5 99.5t-71.5 58.5q-13 5 -34.5 6.5t-48 -5.5 t-48 -22t-34 -47t-7.5 -77z" />
<glyph unicode="&#xc0;" horiz-adv-x="911" d="M41 131q-10 -30 12 -63t58 -52t80.5 -16t74.5 37q7 7 23 123q4 25 11 64q12 69 16 82t19 20q3 1 5 2q4 0 96.5 31t100.5 26q78 -226 86 -240q2 -24 25.5 -41t56 -21t65 1t55 27.5t23.5 56.5q0 4 -36 131t-36 131q2 0 5 0.5t12.5 2.5t16.5 5t17 9t13 14t5.5 20t-5.5 27 q-5 26 -21 35t-42.5 10.5t-37.5 5.5q-9 0 -26 43t-66 186q-10 31 -16 48q-22 66 -52 150t-50 139.5t-23 66.5q-3 9 -6.5 22t-5 18.5t-3.5 14.5t-2 16t0.5 17t2.5 23q5 27 1 55.5t-14 51.5t-37 35.5t-67 8.5q-44 -6 -58 -14q-28 -28 -61 -144.5t-98 -423.5q-46 -209 -78 -420 t-39 -321zM106 1864q0 -28 13 -56q29 -63 115 -124.5t180 -98.5t166 -45q37 3 58 24.5t5.5 54.5t-78.5 62q-159 72 -311 217q-25 20 -68.5 17.5t-66.5 -17.5q-13 -6 -13 -34zM346 516q-4 0 7.5 75t25.5 149.5t18 74.5q20 -53 43 -125l45 -131q0 -4 -34.5 -16t-69.5 -21.5 t-35 -5.5z" />
<glyph unicode="&#xc1;" horiz-adv-x="911" d="M41 131q-10 -30 12 -63t58 -52t80.5 -16t74.5 37q7 7 23 123q4 25 11 64q12 69 16 82t19 20q3 1 5 2q4 0 96.5 31t100.5 26q78 -226 86 -240q2 -24 25.5 -41t56 -21t65 1t55 27.5t23.5 56.5q0 4 -36 131t-36 131q2 0 5 0.5t12.5 2.5t16.5 5t17 9t13 14t5.5 20t-5.5 27 q-5 26 -21 35t-42.5 10.5t-37.5 5.5q-9 0 -26 43t-66 186q-10 31 -16 48q-22 66 -52 150t-50 139.5t-23 66.5q-3 9 -6.5 22t-5 18.5t-3.5 14.5t-2 16t0.5 17t2.5 23q5 27 1 55.5t-14 51.5t-37 35.5t-67 8.5q-44 -6 -58 -14q-28 -28 -61 -144.5t-98 -423.5q-46 -209 -78 -420 t-39 -321zM78.5 1579q3.5 -9 17.5 -23q53 -28 123.5 -18.5t139.5 36t132 63t100.5 62.5t45.5 34q25 38 -0.5 77t-65.5 37q-39 -2 -70 -14t-157 -78q-220 -115 -239 -129q-16 -11 -25 -24q-5 -14 -1.5 -23zM346 516q-4 0 7.5 75t25.5 149.5t18 74.5q20 -53 43 -125l45 -131 q0 -4 -34.5 -16t-69.5 -21.5t-35 -5.5z" />
<glyph unicode="&#xc2;" horiz-adv-x="921" d="M29 1557q-2 -11 6 -22.5t21 -21t40.5 -16.5t65.5 -8q16 5 69 63.5t97 113.5l45 56q2 2 11 -5t21.5 -19t27 -27t28 -31t22.5 -28q38 -45 67 -61.5t75 -16.5q123 0 55 100q-5 9 -39 50t-83.5 94t-107 95t-96.5 44h-51q-37 -16 -96 -107q-24 -25 -95 -119t-79 -114 q-2 -9 -4 -20zM41 131q-10 -30 12 -63t58 -52t80.5 -16t74.5 37q7 7 23 123q4 25 11 64q12 69 16 82t19 20q3 1 5 2q4 0 96.5 31t100.5 26q78 -226 86 -240q2 -24 25.5 -41t56 -21t65 1t55 27.5t23.5 56.5q0 4 -36 131t-36 131q2 0 5 0.5t12.5 2.5t16.5 5t17 9t13 14t5.5 20 t-5.5 27q-5 26 -21 35t-42.5 10.5t-37.5 5.5q-9 0 -26 43t-66 186q-10 31 -16 48q-22 66 -52 150t-50 139.5t-23 66.5q-3 9 -6.5 22t-5 18.5t-3.5 14.5t-2 16t0.5 17t2.5 23q5 27 1 55.5t-14 51.5t-37 35.5t-67 8.5q-44 -6 -58 -14q-28 -28 -61 -144.5t-98 -423.5 q-46 -209 -78 -420t-39 -321zM346 516q-4 0 7.5 75t25.5 149.5t18 74.5q20 -53 43 -125l45 -131q0 -4 -34.5 -16t-69.5 -21.5t-35 -5.5z" />
<glyph unicode="&#xc3;" horiz-adv-x="915" d="M34.5 1689q1.5 -20 16.5 -36q43 -43 101 -43q17 0 57 29.5t65 27.5q26 -2 75 -49t67 -55q18 -12 46.5 -21.5t75 -9t87.5 21.5q73 39 119.5 103.5t19.5 103.5q0 1 -4.5 8.5t-7 11t-8.5 11.5t-12 11t-14.5 7.5t-19 3.5t-23 -3.5t-28 -11t-33.5 -21.5q-6 -5 -16.5 -18 t-20 -24.5t-25.5 -23.5t-32 -13.5t-39 3.5q-24 8 -38.5 22.5t-20 28.5t-22.5 30.5t-44 28.5q-29 15 -69.5 22t-77.5 1q-33 -6 -66 -22t-56 -36.5t-38.5 -44t-14 -43.5zM41 131q-10 -30 12 -63t58 -52t80.5 -16t74.5 37q7 7 23 123q4 25 11 64q12 69 16 82t19 20q3 1 5 2 q4 0 96.5 31t100.5 26q78 -226 86 -240q2 -24 25.5 -41t56 -21t65 1t55 27.5t23.5 56.5q0 4 -36 131t-36 131q2 0 5 0.5t12.5 2.5t16.5 5t17 9t13 14t5.5 20t-5.5 27q-5 26 -21 35t-42.5 10.5t-37.5 5.5q-9 0 -26 43t-66 186q-10 31 -16 48q-22 66 -52 150t-50 139.5 t-23 66.5q-3 9 -6.5 22t-5 18.5t-3.5 14.5t-2 16t0.5 17t2.5 23q5 27 1 55.5t-14 51.5t-37 35.5t-67 8.5q-44 -6 -58 -14q-28 -28 -61 -144.5t-98 -423.5q-46 -209 -78 -420t-39 -321zM346 516q-4 0 7.5 75t25.5 149.5t18 74.5q20 -53 43 -125l45 -131q0 -4 -34.5 -16 t-69.5 -21.5t-35 -5.5z" />
<glyph unicode="&#xc4;" horiz-adv-x="911" d="M41 131q-10 -30 12 -63t58 -52t80.5 -16t74.5 37q7 7 23 123q4 25 11 64q12 69 16 82t19 20q3 1 5 2q4 0 96.5 31t100.5 26q78 -226 86 -240q2 -24 25.5 -41t56 -21t65 1t55 27.5t23.5 56.5q0 4 -36 131t-36 131q2 0 5 0.5t12.5 2.5t16.5 5t17 9t13 14t5.5 20t-5.5 27 q-5 26 -21 35t-42.5 10.5t-37.5 5.5q-9 0 -26 43t-66 186q-10 31 -16 48q-22 66 -52 150t-50 139.5t-23 66.5q-3 9 -6.5 22t-5 18.5t-3.5 14.5t-2 16t0.5 17t2.5 23q5 27 1 55.5t-14 51.5t-37 35.5t-67 8.5q-44 -6 -58 -14q-28 -28 -61 -144.5t-98 -423.5q-46 -209 -78 -420 t-39 -321zM100 1677q0 -47 13 -67q22 -33 38 -43q31 -19 89 -13q45 8 66 53.5t-3 92.5q-6 12 -13 20.5t-12.5 14.5t-15 10t-14.5 6t-16.5 3t-16.5 1h-19.5h-19.5q-45 0 -63 -18q-13 -13 -13 -60zM346 516q-4 0 7.5 75t25.5 149.5t18 74.5q20 -53 43 -125l45 -131 q0 -4 -34.5 -16t-69.5 -21.5t-35 -5.5zM418 1656.5q-4 -41.5 24 -70.5t80 -25q42 0 69.5 15.5t33.5 43.5q18 48 7 73t-54 46q-33 14 -69 12t-56 -22q-31 -31 -35 -72.5z" />
<glyph unicode="&#xc5;" horiz-adv-x="911" d="M41 131q-10 -30 12 -63t58 -52t80.5 -16t74.5 37q7 7 23 123q4 25 11 64q12 69 16 82t19 20q3 1 5 2q4 0 96.5 31t100.5 26q78 -226 86 -240q2 -24 25.5 -41t56 -21t65 1t55 27.5t23.5 56.5q0 4 -36 131t-36 131q2 0 5 0.5t12.5 2.5t16.5 5t17 9t13 14t5.5 20t-5.5 27 q-5 26 -21 35t-42.5 10.5t-37.5 5.5q-9 0 -26 43t-66 186q-10 31 -16 48q-22 66 -52 150t-50 139.5t-23 66.5q-3 9 -6.5 22t-5 18.5t-3.5 14.5t-2 16t0.5 17t2.5 23q5 27 1 55.5t-14 51.5t-37 35.5t-67 8.5q-44 -6 -58 -14q-28 -28 -61 -144.5t-98 -423.5q-46 -209 -78 -420 t-39 -321zM201 1716q-6 -51 12.5 -83.5t65.5 -57.5q13 -9 38.5 -18.5t65 -14.5t77 1.5t74.5 38t58 87.5q7 16 8 48.5t-6.5 74t-40 78t-86.5 49.5q-25 11 -67.5 11t-67.5 -11q-52 -17 -88.5 -74.5t-42.5 -128.5zM339.5 1715q0.5 25 12.5 50q28 57 58 47q47 -13 47 -83 q0 -22 -32.5 -44.5t-68.5 -21.5q-5 0 -11 13.5t-5.5 38.5zM346 516q-4 0 7.5 75t25.5 149.5t18 74.5q20 -53 43 -125l45 -131q0 -4 -34.5 -16t-69.5 -21.5t-35 -5.5z" />
<glyph unicode="&#xc6;" horiz-adv-x="1521" d="M5 171q13 -37 45 -63t73.5 -35.5t81.5 19.5q10 6 51 115q56 128 62 137q6 7 23 11q2 1 3 1q4 -1 101 8.5t104 2.5q22 -236 26 -252q-3 -24 16 -46t50 -34t63.5 -14.5t60 14t36.5 49.5v8q128 -91 348 10q39 17 91 64.5t69 81.5q47 93 -60 129q-54 15 -86.5 6t-81.5 -45 q-87 -71 -101 -77q-17 -7 -26 14q-1 3 -10 26q-28 64 -39 244q0 85 4.5 100t32.5 21h2q118 25 206.5 54.5t98.5 51.5q18 41 -22.5 78t-108.5 37q-9 0 -57 -11.5t-92 -21t-47 -6.5q-6 0 -7.5 18t-1.5 88q3 25 6 105t5.5 144.5t5.5 64.5q252 38 463 61q10 1 19.5 18.5t5.5 45 t-32 49.5q-38 28 -84.5 31t-158.5 -9q-342 -58 -404 -90q-1 -1 -3 -2t-3 -2q-11 66 -92 74q-46 3 -59 0q-34 -20 -92.5 -125t-194.5 -389q-92 -190 -173 -388.5t-114 -305.5q-16 -28 -3 -65zM395 539q-4 1 24.5 71t59.5 139t35 68q6 -55 12 -131l15 -137q-1 -4 -39 -8 t-70.5 -4.5t-36.5 2.5z" />
<glyph unicode="&#xc7;" horiz-adv-x="929" d="M48.5 652q-3.5 -146 6.5 -212q1 -6 7.5 -35.5t9.5 -41t11 -41.5t13.5 -45.5t17 -43.5t22 -45t26.5 -41t33 -40t39 -33t47 -29q-33 -42 -33 -106q0 -40 31 -69t106 -58q20 -5 39 -12.5t36 -20t12.5 -29t-34.5 -33.5q-8 -8 -40.5 -22t-63.5 -21q-159 -47 -33 -127 q44 -25 108 -21.5t124 23t106 57t53 79.5q7 63 -37.5 127t-122.5 104q-14 4 -26.5 12.5t-18.5 14.5l-6 6q1 22 11 53q0 1 1 3t1 3q53 2 117 22t125.5 54.5t101 90.5t36.5 122q-26 26 -35 32q-104 70 -245 -57q-78 -62 -117 -71t-65 26q-68 80 -88 272t20 380q1 5 9 41.5 t16 67.5t24 75.5t33.5 77.5t45.5 62t60 40l31 14q6 0 18.5 -28t12.5 -39q0 -23 45.5 -45.5t91.5 -22.5q37 0 57 30t15 76.5t-35 90.5q-46 68 -146 98.5t-202 7.5q-267 -69 -357 -561q-11 -66 -14.5 -212z" />
<glyph unicode="&#xc8;" horiz-adv-x="868" d="M53 426q2 -33 5.5 -64.5t17 -86t33.5 -97t58.5 -83.5t87.5 -59t124.5 -10t167.5 50q39 17 91 64t69 81q47 93 -60 129q-54 15 -86.5 6t-81.5 -45q-87 -71 -101 -77q-17 -7 -26 14q-1 3 -10 26q-28 64 -39 244q0 85 4.5 100t32.5 21h2q118 25 206.5 54.5t98.5 51.5 q18 41 -22.5 78t-108.5 37q-9 0 -57.5 -11.5t-92.5 -21t-47 -6.5q-6 0 -7 17t-1 90q3 25 6 105t5.5 144t5.5 64q252 39 463 62q10 1 19.5 18t5.5 44.5t-32 49.5q-38 28 -84.5 31.5t-158.5 -8.5q-342 -58 -404 -90q-17 -10 -27 -30.5t-4 -31.5q6 -6 6 -15.5t-6 -15.5 q-5 -21 -20.5 -167t-27.5 -347.5t-5 -314.5zM155.5 1883q-0.5 -28 12.5 -56q28 -63 113 -126.5t178.5 -103.5t163.5 -49q21 1 38.5 9.5t25.5 23t5.5 31.5t-23.5 38t-59 40q-158 76 -305 223q-22 20 -67.5 19.5t-67.5 -15.5q-14 -6 -14.5 -34z" />
<glyph unicode="&#xc9;" horiz-adv-x="868" d="M53 426q2 -33 5.5 -64.5t17 -86t33.5 -97t58.5 -83.5t87.5 -59t124.5 -10t167.5 50q39 17 91 64t69 81q47 93 -60 129q-54 15 -86.5 6t-81.5 -45q-87 -71 -101 -77q-17 -7 -26 14q-1 3 -10 26q-28 64 -39 244q0 85 4.5 100t32.5 21h2q118 25 206.5 54.5t98.5 51.5 q18 41 -22.5 78t-108.5 37q-9 0 -57.5 -11.5t-92.5 -21t-47 -6.5q-6 0 -7 17t-1 90q3 25 6 105t5.5 144t5.5 64q252 39 463 62q10 1 19.5 18t5.5 44.5t-32 49.5q-38 28 -84.5 31.5t-158.5 -8.5q-342 -58 -404 -90q-17 -10 -27 -30.5t-4 -31.5q6 -6 6 -15.5t-6 -15.5 q-5 -21 -20.5 -167t-27.5 -347.5t-5 -314.5zM150.5 1593.5q3.5 -8.5 17.5 -22.5q53 -28 123.5 -18.5t139.5 35.5t132 62.5t100.5 62.5t45.5 34q25 38 -0.5 77.5t-65.5 37.5q-39 -2 -69 -14t-158 -79q-220 -115 -239 -129q-16 -11 -25 -24q-5 -14 -1.5 -22.5z" />
<glyph unicode="&#xca;" horiz-adv-x="868" d="M53 426q2 -33 5.5 -64.5t17 -86t33.5 -97t58.5 -83.5t87.5 -59t124.5 -10t167.5 50q39 17 91 64t69 81q47 93 -60 129q-54 15 -86.5 6t-81.5 -45q-87 -71 -101 -77q-17 -7 -26 14q-1 3 -10 26q-28 64 -39 244q0 85 4.5 100t32.5 21h2q118 25 206.5 54.5t98.5 51.5 q18 41 -22.5 78t-108.5 37q-9 0 -57.5 -11.5t-92.5 -21t-47 -6.5q-6 0 -7 17t-1 90q3 25 6 105t5.5 144t5.5 64q252 39 463 62q10 1 19.5 18t5.5 44.5t-32 49.5q-38 28 -84.5 31.5t-158.5 -8.5q-342 -58 -404 -90q-17 -10 -27 -30.5t-4 -31.5q6 -6 6 -15.5t-6 -15.5 q-5 -21 -20.5 -167t-27.5 -347.5t-5 -314.5zM98 1594q-2 -11 6 -22.5t21 -21t40.5 -16.5t65.5 -8q16 5 69 63.5t98 114.5l44 55q3 3 24 -15.5t46.5 -46t40.5 -48.5q38 -45 66.5 -61.5t74.5 -16.5q124 0 56 100q-5 9 -39 50t-83.5 94t-107 95t-96.5 44h-51q-38 -17 -97 -107 q-24 -25 -95 -119t-79 -114q-2 -9 -4 -20z" />
<glyph unicode="&#xcb;" horiz-adv-x="868" d="M53 426q2 -33 5.5 -64.5t17 -86t33.5 -97t58.5 -83.5t87.5 -59t124.5 -10t167.5 50q39 17 91 64t69 81q47 93 -60 129q-54 15 -86.5 6t-81.5 -45q-87 -71 -101 -77q-17 -7 -26 14q-1 3 -10 26q-28 64 -39 244q0 85 4.5 100t32.5 21h2q118 25 206.5 54.5t98.5 51.5 q18 41 -22.5 78t-108.5 37q-9 0 -57.5 -11.5t-92.5 -21t-47 -6.5q-6 0 -7 17t-1 90q3 25 6 105t5.5 144t5.5 64q252 39 463 62q10 1 19.5 18t5.5 44.5t-32 49.5q-38 28 -84.5 31.5t-158.5 -8.5q-342 -58 -404 -90q-17 -10 -27 -30.5t-4 -31.5q6 -6 6 -15.5t-6 -15.5 q-5 -21 -20.5 -167t-27.5 -347.5t-5 -314.5zM146 1661.5q0 -46.5 14 -66.5q21 -32 38 -42q31 -19 89 -13q45 8 66 53.5t-3 92.5q-6 12 -13 20.5t-12.5 14.5t-15 10t-14.5 6t-16.5 3t-16.5 1h-19.5h-19.5q-44 0 -63 -19q-14 -14 -14 -60.5zM465 1641.5q-4 -41.5 24 -70.5 t80 -25q41 0 69 16t34 44q18 48 7 72.5t-54 45.5q-33 14 -69 12t-56 -22q-31 -31 -35 -72.5z" />
<glyph unicode="&#xcc;" horiz-adv-x="489" d="M-214 1836q0 -28 13 -56q29 -63 115 -124.5t180 -99t166 -45.5q21 2 38.5 11t25.5 23.5t5.5 32t-23.5 37.5t-60 38q-161 73 -312 217q-25 20 -68.5 17.5t-66.5 -17.5q-13 -6 -13 -34zM-70.5 1370q-3.5 -46 2.5 -137q6 -153 38 -593.5t44 -524.5q11 -101 150 -115 q24 0 44.5 6.5t41 24.5t24.5 50t-4 83q-18 188 -90 889q-18 183 -32.5 258.5t-34.5 101.5q-47 47 -148 33q-18 -4 -25 -17t-10.5 -59z" />
<glyph unicode="&#xcd;" horiz-adv-x="485" d="M-267.5 1576.5q3.5 -8.5 17.5 -22.5q53 -28 123.5 -18.5t139.5 36t132 63t100.5 62.5t45.5 34q25 38 -0.5 77t-65.5 37q-39 -2 -70 -14t-157 -78q-219 -115 -241 -131q-14 -10 -23 -23q-5 -14 -1.5 -22.5zM-96.5 1370q-3.5 -46 2.5 -137q6 -153 38 -593.5t44 -524.5 q11 -102 149 -115q24 0 44.5 6.5t41 24.5t25 50t-3.5 83q-18 188 -90 889q-18 182 -33 258t-35 102q-47 47 -147 33q-18 -4 -25 -17t-10.5 -59z" />
<glyph unicode="&#xce;" horiz-adv-x="550" d="M-405 1588q-2 -11 6 -22.5t21 -21t40.5 -16.5t65.5 -8q16 5 69 63.5t97 114.5l45 55q4 4 45.5 -37.5t64.5 -73.5q37 -45 66 -61t75 -16q124 0 56 100q-5 9 -39 50t-83.5 94t-107 95t-96.5 44q-12 1 -23 1t-19 -0.5t-9 -0.5q-37 -16 -96 -107q-24 -25 -95 -119t-79 -114 q-2 -9 -4 -20zM-139.5 1370q-3.5 -46 2.5 -137q6 -153 38 -593.5t44 -524.5q11 -102 149 -115q24 0 44.5 6.5t41 24.5t25 50t-3.5 83q-18 188 -90 889q-18 182 -33 258t-35 102q-47 47 -147 33q-18 -4 -25 -17t-10.5 -59z" />
<glyph unicode="&#xcf;" horiz-adv-x="509" d="M-260 1665.5q0 -46.5 14 -66.5q21 -32 38 -42q31 -19 89 -13q45 8 66.5 53.5t-2.5 92.5q-6 12 -13 20.5t-12.5 14.5t-15 10t-14.5 6t-16.5 3t-16.5 1h-19.5h-19.5q-45 0 -64 -19q-14 -14 -14 -60.5zM-80.5 1370q-3.5 -46 2.5 -137q6 -153 38 -593.5t44 -524.5 q11 -101 150 -115q24 0 44.5 6.5t41 24.5t24.5 50t-4 83q-18 188 -90 889q-18 182 -33 258t-35 102q-47 47 -147 33q-18 -4 -25 -17t-10.5 -59zM59.5 1645.5q-3.5 -41.5 24.5 -70.5t80 -25q41 0 68.5 16t33.5 44q18 48 7 73t-54 46q-33 14 -69 11.5t-56 -22.5 q-31 -31 -34.5 -72.5z" />
<glyph unicode="&#xd0;" horiz-adv-x="1044" d="M-12.5 779q-1.5 -24 18.5 -50q38 -51 123 -61q17 -148 44 -322t40 -196q14 -28 14 -50q5 -28 45 -56.5t102 -35t136 42.5q26 19 67 55.5t93.5 90t101 121t74.5 128.5q93 225 82 412q-10 119 -25 182q-73 302 -342 392q-100 33 -225 36q-66 0 -66 9q-13 13 -64 25.5 t-85 6.5q-29 -9 -49 -49q0 -7 -6 -17.5t-17 -15.5q-26 -11 -25 -35.5t31 -54.5q12 -20 14.5 -31t2.5 -36q2 -17 16 -191.5t23 -253.5q-82 -10 -97 -10q-25 -12 -26.5 -36zM319 1288q-6 20 0.5 22t49.5 -5q50 0 92 -25q117 -63 175 -179t46 -265q0 -24 -2.5 -54.5t-17 -92 t-39 -118.5t-73.5 -125t-116 -120q-26 95 -57 344q150 16 176 25q22 8 31 26q39 39 0 78q-27 33 -83 47t-120 2h-25q-23 240 -37 440z" />
<glyph unicode="&#xd1;" horiz-adv-x="970" d="M-0.5 1683q1.5 -20 16.5 -36q43 -43 101 -43q17 0 57.5 29.5t65.5 27.5q26 -2 74.5 -49.5t66.5 -55.5q18 -12 47 -21.5t75 -8.5t87 22q73 39 119.5 103.5t19.5 103.5l-5 9q-5 10 -8 14t-10.5 12t-14.5 11t-19 5.5t-24.5 -0.5t-30 -11.5t-37.5 -22.5q-6 -5 -17 -18 t-20.5 -24.5t-25.5 -23.5t-32 -13.5t-39 3.5q-24 8 -38.5 22.5t-20 28.5t-22 30.5t-43.5 28.5q-29 15 -70 22t-78 1q-33 -6 -66 -22t-56 -36.5t-38.5 -44t-14 -43.5zM44 1196q-1 -82 4 -559q1 -48 1 -74q9 -481 25 -512q12 -31 53.5 -48t85.5 -11q42 0 58 15t22 54 q6 25 -1 260.5t-13 276.5q3 -4 43.5 -59t87.5 -116.5t101 -129.5t102 -118t73 -62q104 -43 156 0q8 7 12 11t8 10t5 17t2 22.5t-1 36t-3.5 49.5t-5.5 69q-1 8 -1 12q0 60 -26 571.5t-31 522.5q-41 82 -180 51q-22 -12 -27 -21q-16 -28 -11 -198q3 -103 21 -506 q4 -72 6 -144.5t2 -109.5v-37q-5 -5 -155 285.5t-172 337.5q-39 67 -39 102q-6 56 -42.5 87.5t-88.5 31.5q-41 0 -58 -17q-1 -2 -3 -5q-9 -13 -10 -95z" />
<glyph unicode="&#xd2;" horiz-adv-x="985" d="M52 741q-5 -77 0.5 -183t25 -204t67 -181.5t117.5 -115.5q43 -24 92 -37.5t122 -10.5t145 32q43 22 82 51.5t81 80.5t72.5 114.5t51.5 156t24 201.5q1 55 -4.5 115t-24.5 139t-50 153t-84.5 153.5t-123.5 142.5q-56 50 -105 74t-108 24q-42 6 -53 4t-29 -20 q-22 -22 -22 -33q0 -16 -33 -49l-8 -8q-31 -30 -50 -54t-51 -78t-62 -142t-58 -208q-9 -40 -14 -117zM188 1823.5q0 -28.5 13 -56.5q29 -63 115 -124.5t180 -98.5t166 -45q37 3 58 24.5t5.5 54.5t-78.5 62q-157 71 -311 218q-25 20 -68.5 17.5t-66.5 -17.5q-13 -6 -13 -34.5 zM278.5 636.5q-2.5 115.5 12.5 229t62 215.5t120 160q12 0 33 -33q14 -14 34 -47t31 -67q104 -196 110.5 -395t-85.5 -365q-38 -58 -94 -105t-86 -41q-6 0 -27.5 28.5t-38.5 59.5q-29 56 -49 150.5t-22.5 210z" />
<glyph unicode="&#xd3;" horiz-adv-x="985" d="M52 741q-5 -77 0.5 -183t25 -204t67 -181.5t117.5 -115.5q43 -24 92 -37.5t122 -10.5t145 32q43 22 82 51.5t81 80.5t72.5 114.5t51.5 156t24 201.5q1 55 -4.5 115t-24.5 139t-50 153t-84.5 153.5t-123.5 142.5q-56 50 -105 74t-108 24q-42 6 -53 4t-29 -20 q-22 -22 -22 -33q0 -16 -33 -49l-8 -8q-31 -30 -50 -54t-51 -78t-62 -142t-58 -208q-9 -40 -14 -117zM143.5 1579q3.5 -8 18.5 -23q53 -28 123.5 -18.5t139 36t131.5 63t100.5 62.5t45.5 34q25 38 0 77t-65 37q-39 -2 -70 -14t-157 -78q-222 -116 -239 -128q-17 -11 -26 -25 q-5 -15 -1.5 -23zM278.5 636.5q-2.5 115.5 12.5 229t62 215.5t120 160q12 0 33 -33q14 -14 34 -47t31 -67q104 -196 110.5 -395t-85.5 -365q-38 -58 -94 -105t-86 -41q-6 0 -27.5 28.5t-38.5 59.5q-29 56 -49 150.5t-22.5 210z" />
<glyph unicode="&#xd4;" horiz-adv-x="985" d="M52 741q-5 -77 0.5 -183t25 -204t67 -181.5t117.5 -115.5q43 -24 92 -37.5t122 -10.5t145 32q43 22 82 51.5t81 80.5t72.5 114.5t51.5 156t24 201.5q1 55 -4.5 115t-24.5 139t-50 153t-84.5 153.5t-123.5 142.5q-56 50 -105 74t-108 24q-42 6 -53 4t-29 -20 q-22 -22 -22 -33q0 -16 -33 -49l-8 -8q-31 -30 -50 -54t-51 -78t-62 -142t-58 -208q-9 -40 -14 -117zM74 1575q-2 -11 6 -22.5t21 -21t40.5 -16.5t65.5 -8q16 5 69 63.5t98 114.5l44 56q4 4 45.5 -37.5t64.5 -73.5q38 -45 67 -61.5t75 -16.5q124 0 55 101q-5 9 -39 49.5 t-83.5 93.5t-107 95t-96.5 44q-12 1 -23 1t-19 -0.5t-9 -0.5q-38 -17 -96 -106q-23 -25 -94.5 -119.5t-79.5 -114.5q-2 -9 -4 -20zM278.5 636.5q-2.5 115.5 12.5 229t62 215.5t120 160q12 0 33 -33q14 -14 34 -47t31 -67q104 -196 110.5 -395t-85.5 -365q-38 -58 -94 -105 t-86 -41q-6 0 -27.5 28.5t-38.5 59.5q-29 56 -49 150.5t-22.5 210z" />
<glyph unicode="&#xd5;" horiz-adv-x="985" d="M52 741q-5 -77 0.5 -183t25 -204t67 -181.5t117.5 -115.5q43 -24 92 -37.5t122 -10.5t145 32q43 22 82 51.5t81 80.5t72.5 114.5t51.5 156t24 201.5q1 55 -4.5 115t-24.5 139t-50 153t-84.5 153.5t-123.5 142.5q-56 50 -105 74t-108 24q-42 6 -53 4t-29 -20 q-22 -22 -22 -33q0 -16 -33 -49l-8 -8q-31 -30 -50 -54t-51 -78t-62 -142t-58 -208q-9 -40 -14 -117zM85.5 1683q1.5 -20 16.5 -36q43 -43 101 -43q17 0 57.5 29.5t65.5 27.5q26 -2 74.5 -49.5t66.5 -55.5q18 -12 47 -21.5t75 -8.5t87 22q73 39 119.5 103.5t19.5 103.5l-5 9 q-5 10 -8 14t-10.5 12t-14.5 11t-19 5.5t-24.5 -0.5t-30 -11.5t-37.5 -22.5q-6 -5 -17 -18t-20.5 -24.5t-25.5 -23.5t-32 -13.5t-39 3.5q-24 8 -38.5 22.5t-20 28.5t-22 30.5t-43.5 28.5q-29 15 -70 22t-78 1q-33 -6 -66 -22t-56 -36.5t-38.5 -44t-14 -43.5zM278.5 636.5 q-2.5 115.5 12.5 229t62 215.5t120 160q12 0 33 -33q14 -14 34 -47t31 -67q104 -196 110.5 -395t-85.5 -365q-38 -58 -94 -105t-86 -41q-6 0 -27.5 28.5t-38.5 59.5q-29 56 -49 150.5t-22.5 210z" />
<glyph unicode="&#xd6;" horiz-adv-x="985" d="M52 741q-5 -77 0.5 -183t25 -204t67 -181.5t117.5 -115.5q43 -24 92 -37.5t122 -10.5t145 32q43 22 82 51.5t81 80.5t72.5 114.5t51.5 156t24 201.5q1 55 -4.5 115t-24.5 139t-50 153t-84.5 153.5t-123.5 142.5q-56 50 -105 74t-108 24q-42 6 -53 4t-29 -20 q-22 -22 -22 -33q0 -16 -33 -49l-8 -8q-31 -30 -50 -54t-51 -78t-62 -142t-58 -208q-9 -40 -14 -117zM156 1677q0 -47 14 -67q22 -33 38 -43q31 -19 89 -13q45 8 66 53.5t-3 92.5q-6 12 -13 20.5t-12.5 14.5t-15 10t-14.5 6t-16.5 3t-16.5 1h-19.5h-19.5q-45 0 -63 -18 q-14 -13 -14 -60zM278.5 636.5q-2.5 115.5 12.5 229t62 215.5t120 160q12 0 33 -33q14 -14 34 -47t31 -67q104 -196 110.5 -395t-85.5 -365q-38 -58 -94 -105t-86 -41q-6 0 -27.5 28.5t-38.5 59.5q-29 56 -49 150.5t-22.5 210zM475.5 1656.5q-3.5 -41.5 24.5 -70.5t80 -25 q41 0 68.5 15.5t33.5 43.5q18 48 7 73t-54 46q-33 14 -69 12t-56 -22q-31 -31 -34.5 -72.5z" />
<glyph unicode="&#xd7;" horiz-adv-x="753" d="M86 780.5q-5 -20.5 8 -32.5q0 -5 23 -34.5t67 -71t88 -67.5q-24 -32 -51 -75q-35 -57 -47.5 -91t-5.5 -55t37 -35q135 -73 213 70q4 12 8.5 20.5t7.5 10.5l2 2q1 0 33.5 -32.5t85.5 -66.5t102 -38q78 0 78 61q0 1 1 14t0 18.5t-9.5 23t-25.5 33.5t-49.5 42.5t-78.5 57.5 l-1 1l-1 1q-27 21 -28 32q-2 13 33 63q2 4 7 10q4 7 7 11q56 80 74 120t12 61q-7 12 -26 27t-45.5 27.5t-59 8t-58.5 -30.5l-22 -22q-36 -36 -43 -45q-1 -3 -2.5 -4.5t-4 -5t-5.5 -7.5q-10 -13 -22.5 -32t-19 -28t-10.5 -9q-32 24 -75 51q-36 21 -58 32.5t-43.5 18t-38 4.5 t-32.5 -12q-20 -6 -25 -26.5z" />
<glyph unicode="&#xd9;" d="M41 754q0 -393 86 -564q36 -63 57 -87q116 -135 351 -76q34 17 60 34.5t66.5 63.5t69.5 107t57 167.5t41 241.5q20 150 10.5 392t-36.5 308q-3 14 -10.5 28.5t-25 35t-44 30.5t-67.5 14t-95 -13q-51 -40 -26 -95q39 -72 42.5 -318.5t-34.5 -442.5q-20 -108 -70.5 -228.5 t-77.5 -126.5q-13 -4 -30.5 45t-32.5 133t-23 177q-11 170 19 520q25 214 -11 250q-26 26 -75.5 36t-87.5 -2q-52 -20 -82.5 -193.5t-30.5 -436.5zM170 1875q0 -28 14 -56q29 -63 115 -124.5t180 -99t166 -45.5q21 2 38.5 11t25.5 23.5t5.5 32t-23.5 37.5t-60 38 q-161 73 -312 217q-25 20 -68.5 17.5t-66.5 -17.5q-14 -6 -14 -34z" />
<glyph unicode="&#xda;" d="M41 754q0 -393 86 -564q36 -63 57 -87q116 -135 351 -76q34 17 60 34.5t66.5 63.5t69.5 107t57 167.5t41 241.5q20 150 10.5 392t-36.5 308q-3 14 -10.5 28.5t-25 35t-44 30.5t-67.5 14t-95 -13q-51 -40 -26 -95q39 -72 42.5 -318.5t-34.5 -442.5q-20 -108 -70.5 -228.5 t-77.5 -126.5q-13 -4 -30.5 45t-32.5 133t-23 177q-11 170 19 520q25 214 -11 250q-26 26 -75.5 36t-87.5 -2q-52 -20 -82.5 -193.5t-30.5 -436.5zM158.5 1593.5q3.5 -8.5 17.5 -22.5q53 -28 123.5 -18.5t139.5 35.5t132 62.5t100.5 62.5t45.5 34q25 38 -0.5 77.5 t-65.5 37.5q-39 -2 -69 -14t-158 -79q-220 -115 -239 -129q-16 -11 -25 -24q-5 -14 -1.5 -22.5z" />
<glyph unicode="&#xdb;" d="M41 754q0 -393 86 -564q36 -63 57 -87q116 -135 351 -76q34 17 60 34.5t66.5 63.5t69.5 107t57 167.5t41 241.5q20 150 10.5 392t-36.5 308q-3 14 -10.5 28.5t-25 35t-44 30.5t-67.5 14t-95 -13q-51 -40 -26 -95q39 -72 42.5 -318.5t-34.5 -442.5q-20 -108 -70.5 -228.5 t-77.5 -126.5q-13 -4 -30.5 45t-32.5 133t-23 177q-11 170 19 520q25 214 -11 250q-26 26 -75.5 36t-87.5 -2q-52 -20 -82.5 -193.5t-30.5 -436.5zM76 1598q-2 -11 6 -22.5t21 -21t40.5 -16.5t65.5 -8q16 5 69 63.5t98 114.5l44 55q4 5 45.5 -36.5t64.5 -73.5 q38 -45 67 -61.5t75 -16.5q123 0 55 100q-5 9 -39 50t-83.5 94t-107 95t-96.5 44h-51q-37 -16 -96 -107q-24 -25 -95 -119t-79 -114q-2 -9 -4 -20z" />
<glyph unicode="&#xdc;" d="M41 754q0 -393 86 -564q36 -63 57 -87q116 -135 351 -76q34 17 60 34.5t66.5 63.5t69.5 107t57 167.5t41 241.5q20 150 10.5 392t-36.5 308q-3 14 -10.5 28.5t-25 35t-44 30.5t-67.5 14t-95 -13q-51 -40 -26 -95q39 -72 42.5 -318.5t-34.5 -442.5q-20 -108 -70.5 -228.5 t-77.5 -126.5q-13 -4 -30.5 45t-32.5 133t-23 177q-11 170 19 520q25 214 -11 250q-26 26 -75.5 36t-87.5 -2q-52 -20 -82.5 -193.5t-30.5 -436.5zM172 1675q0 -47 14 -67q22 -33 38 -43q31 -19 89 -13q45 8 66.5 53.5t-2.5 92.5q-6 12 -13 20.5t-12.5 14.5t-15 10t-14.5 6 t-16.5 3t-16.5 1h-19.5h-19.5q-46 0 -64 -18q-14 -13 -14 -60zM491.5 1654q-3.5 -41 24.5 -70t80 -25q41 0 68.5 15.5t33.5 43.5q18 48 7 73t-54 46q-33 14 -69 11.5t-56 -22.5q-31 -31 -34.5 -72z" />
<glyph unicode="&#xdd;" horiz-adv-x="997" d="M62 1387q0 -52 67 -193q15 -29 38 -72.5t35.5 -68t16.5 -35.5q126 -202 137 -223q34 -63 38 -125q1 -19 1 -113q-6 -140 2.5 -263.5t22.5 -180.5q19 -60 52 -86.5t93 -26.5q14 0 22 0.5t21.5 4t20.5 10t16 20t12 32.5t3 49t-5 68q-13 92 -21.5 235.5t-2.5 217.5 q0 61 4.5 82.5t19.5 52.5q73 96 226 391q43 92 58.5 132t15.5 64.5t-17 45.5q-24 30 -75 37t-87 -12q-6 -4 -10 -8t-9 -9.5t-8 -9.5t-9 -13.5t-9.5 -16.5t-12 -23t-14.5 -27.5t-18 -36t-22 -43.5q-7 -12 -30 -53t-44.5 -79t-44.5 -77t-37 -59.5t-14 -13.5q0 6 -119.5 211.5 t-130.5 216.5q-31 41 -123 41q-59 6 -59 -43zM223.5 1589.5q3.5 -7.5 18.5 -22.5q53 -28 123.5 -18.5t139 35.5t131.5 62.5t100.5 62.5t45.5 34q25 38 0 77.5t-65 37.5q-39 -2 -70 -14.5t-158 -78.5q-220 -115 -239 -129q-16 -11 -25 -24q-5 -15 -1.5 -22.5z" />
<glyph unicode="&#xde;" horiz-adv-x="837" d="M61 881q2 -18 24 -36.5t50 -23.5q18 6 31 -30q24 -69 20 -204q-3 -73 -12 -73q-50 -14 -53.5 -57.5t35.5 -79.5q29 -22 34 -49.5t5 -169.5q7 -59 3.5 -116t-5 -70t-9.5 -50q-15 -53 -5.5 -75t54.5 -44q37 -15 72 -15t57 15q29 22 39.5 81.5t10.5 213.5q0 141 7.5 165 t51.5 24q30 3 44.5 5t50 11t57.5 19.5t53 32.5t50.5 50t37 71.5t24.5 96.5q15 97 -12.5 178.5t-87.5 118.5q-56 39 -87 49.5t-109 10.5q-82 8 -97 19t-22 71q-15 166 -60 197q-57 57 -184 20q-36 -7 -51.5 -20.5t-7.5 -28.5q3 -3 9.5 -11.5t11.5 -14t9 -5.5q3 -2 13 -6 t15.5 -7.5t13 -8.5t11 -12t3.5 -15q0 -14 4 -54t4 -55q8 -44 4 -52.5t-33 -16.5q-40 0 -59 -19q-17 -12 -15 -30zM393 782q-8 8 6 10l62 1q33 0 47 -0.5t24 -4.5t12.5 -8.5t6.5 -17.5q22 -53 9 -133.5t-50 -124.5q-27 -27 -55.5 -46t-42.5 -12q-19 326 -19 336z" />
<glyph unicode="&#xe0;" horiz-adv-x="837" d="M47 219q3 -91 125 -156q24 -9 57 -15t77 -3.5t75 18.5q33 12 66 47t55 80l22 41q5 0 9 -7.5t4 -16.5q30 -69 48 -92t50 -35q44 -13 92.5 -4.5t52.5 33.5q9 18 -16 88q-44 170 -54.5 240t-15.5 200q0 13 1 37.5t0.5 38t-2.5 31.5t-9.5 31.5t-19.5 25.5q-18 17 -19.5 23.5 t8.5 17.5q37 72 -63 116q-32 16 -82 18.5t-82 -7.5q-33 -12 -62 -35t-88 -82q-18 -18 -41 -46.5t-59 -89.5t-64 -129.5t-47.5 -167t-17.5 -200.5zM156 1371q0 -28 14 -56q29 -63 115 -124.5t180 -98.5t166 -45q37 3 58 24.5t5.5 54.5t-78.5 62q-159 72 -311 217 q-25 20 -68.5 17.5t-66.5 -17.5q-14 -6 -14 -34zM268 248q-11 -6 0 91q6 55 13 73q14 14 24 63q19 61 52.5 131.5t62.5 102.5q7 10 16 18.5t14 12.5l5 3q-2 -2 0 -22t-1.5 -58t-8 -82.5t-18.5 -95t-33 -95t-52 -83t-74 -59.5z" />
<glyph unicode="&#xe1;" horiz-adv-x="837" d="M47 219q3 -91 125 -156q24 -9 57 -15t77 -3.5t75 18.5q33 12 66 47t55 80l22 41q5 0 9 -7.5t4 -16.5q30 -69 48 -92t50 -35q44 -13 92.5 -4.5t52.5 33.5q9 18 -16 88q-44 170 -54.5 240t-15.5 200q0 13 1 37.5t0.5 38t-2.5 31.5t-9.5 31.5t-19.5 25.5q-18 17 -19.5 23.5 t8.5 17.5q37 72 -63 116q-32 16 -82 18.5t-82 -7.5q-33 -12 -62 -35t-88 -82q-18 -18 -41 -46.5t-59 -89.5t-64 -129.5t-47.5 -167t-17.5 -200.5zM168.5 1091.5q3.5 -8.5 17.5 -22.5q53 -28 123.5 -18.5t139.5 35.5t132 62.5t100.5 62.5t45.5 34q25 38 0 77.5t-65 37.5 t-71.5 -14.5t-156.5 -77.5q-219 -115 -241 -131q-14 -10 -23 -23q-5 -14 -1.5 -22.5zM268 248q-11 -6 0 91q6 55 13 73q14 14 24 63q19 61 52.5 131.5t62.5 102.5q7 10 16 18.5t14 12.5l5 3q-2 -2 0 -22t-1.5 -58t-8 -82.5t-18.5 -95t-33 -95t-52 -83t-74 -59.5z" />
<glyph unicode="&#xe2;" horiz-adv-x="837" d="M47 219q3 -91 125 -156q24 -9 57 -15t77 -3.5t75 18.5q33 12 66 47t55 80l22 41q5 0 9 -7.5t4 -16.5q30 -69 48 -92t50 -35q44 -13 92.5 -4.5t52.5 33.5q9 18 -16 88q-44 170 -54.5 240t-15.5 200q0 13 1 37.5t0.5 38t-2.5 31.5t-9.5 31.5t-19.5 25.5q-18 17 -19.5 23.5 t8.5 17.5q37 72 -63 116q-32 16 -82 18.5t-82 -7.5q-33 -12 -62 -35t-88 -82q-18 -18 -41 -46.5t-59 -89.5t-64 -129.5t-47.5 -167t-17.5 -200.5zM98 1127q-2 -11 6 -22.5t21 -21t40.5 -16.5t65.5 -8q16 5 69 63.5t98 113.5l44 56q3 3 24 -15.5t46.5 -46t40.5 -48.5 q38 -45 66.5 -61.5t74.5 -16.5q124 0 56 100q-5 9 -39 50t-83.5 94t-107 95t-96.5 44h-51q-38 -17 -97 -107q-24 -25 -95 -119t-79 -114q-2 -9 -4 -20zM268 248q-11 -6 0 91q6 55 13 73q14 14 24 63q19 61 52.5 131.5t62.5 102.5q7 10 16 18.5t14 12.5l5 3q-2 -2 0 -22 t-1.5 -58t-8 -82.5t-18.5 -95t-33 -95t-52 -83t-74 -59.5z" />
<glyph unicode="&#xe3;" horiz-adv-x="864" d="M47 219q3 -91 125 -156q24 -9 57 -15t77 -3.5t75 18.5q33 12 66 47t55 80l22 41q5 0 9 -7.5t4 -16.5q30 -69 48 -92t50 -35q44 -13 92.5 -4.5t52.5 33.5q9 18 -16 88q-44 170 -54.5 240t-15.5 200q0 13 1 37.5t0.5 38t-2.5 31.5t-9.5 31.5t-19.5 25.5q-18 17 -19.5 23.5 t8.5 17.5q37 72 -63 116q-32 16 -82 18.5t-82 -7.5q-33 -12 -62 -35t-88 -82q-18 -18 -41 -46.5t-59 -89.5t-64 -129.5t-47.5 -167t-17.5 -200.5zM71.5 1230q1.5 -20 16.5 -36q43 -43 100 -43q17 0 57.5 29.5t65.5 27.5q26 -2 75 -49t67 -55q18 -12 47 -21.5t75 -8.5t87 22 q73 39 119.5 103.5t19.5 103.5q0 1 -4.5 8.5t-7 11t-8.5 11t-12 10.5t-14.5 7.5t-19 3.5t-23 -3.5t-28 -11t-33.5 -21.5q-6 -5 -16.5 -18t-20 -24.5t-25.5 -23.5t-32 -13.5t-39 3.5q-24 8 -38.5 23t-20 29t-22.5 30.5t-44 28.5q-65 35 -147 22q-33 -6 -66 -22t-56 -36.5 t-38.5 -44t-14 -43.5zM268 248q-11 -6 0 91q6 55 13 73q14 14 24 63q19 61 52.5 131.5t62.5 102.5q7 10 16 18.5t14 12.5l5 3q-2 -2 0 -22t-1.5 -58t-8 -82.5t-18.5 -95t-33 -95t-52 -83t-74 -59.5z" />
<glyph unicode="&#xe4;" horiz-adv-x="837" d="M47 219q3 -91 125 -156q24 -9 57 -15t77 -3.5t75 18.5q33 12 66 47t55 80l22 41q5 0 9 -7.5t4 -16.5q30 -69 48 -92t50 -35q44 -13 92.5 -4.5t52.5 33.5q9 18 -16 88q-44 170 -54.5 240t-15.5 200q0 13 1 37.5t0.5 38t-2.5 31.5t-9.5 31.5t-19.5 25.5q-18 17 -19.5 23.5 t8.5 17.5q37 72 -63 116q-32 16 -82 18.5t-82 -7.5q-33 -12 -62 -35t-88 -82q-18 -18 -41 -46.5t-59 -89.5t-64 -129.5t-47.5 -167t-17.5 -200.5zM146 1203.5q0 -46.5 14 -66.5q22 -33 38 -43q31 -19 89 -13q45 8 66 53.5t-3 92.5q-6 12 -13 20.5t-12.5 14.5t-15 10t-14.5 6 t-16.5 3t-16.5 1h-19.5h-19.5q-45 0 -63 -18q-14 -14 -14 -60.5zM268 248q-11 -6 0 91q6 55 13 73q14 14 24 63q19 61 52.5 131.5t62.5 102.5q7 10 16 18.5t14 12.5l5 3q-2 -2 0 -22t-1.5 -58t-8 -82.5t-18.5 -95t-33 -95t-52 -83t-74 -59.5zM465 1182.5q-4 -41.5 24 -70.5 t80 -25q41 0 69 16t34 44q18 48 7 73t-54 46q-33 14 -69 11.5t-56 -22.5q-31 -31 -35 -72.5z" />
<glyph unicode="&#xe5;" horiz-adv-x="837" d="M47 219q3 -91 125 -156q24 -9 57 -15t77 -3.5t75 18.5q33 12 66 47t55 80l22 41q5 0 9 -7.5t4 -16.5q30 -69 48 -92t50 -35q44 -13 92.5 -4.5t52.5 33.5q9 18 -16 88q-44 170 -54.5 240t-15.5 200q0 13 1 37.5t0.5 38t-2.5 31.5t-9.5 31.5t-19.5 25.5q-18 17 -19.5 23.5 t8.5 17.5q37 72 -63 116q-32 16 -82 18.5t-82 -7.5q-33 -12 -62 -35t-88 -82q-18 -18 -41 -46.5t-59 -89.5t-64 -129.5t-47.5 -167t-17.5 -200.5zM252 1225q-6 -51 12.5 -84t65.5 -58q13 -9 38.5 -18.5t64.5 -14t77 2t75 38t58 87.5q7 16 8 48.5t-6.5 74t-40 77.5t-86.5 49 q-25 11 -67.5 11t-67.5 -11q-52 -17 -88.5 -74t-42.5 -128zM268 248q-11 -6 0 91q6 55 13 73q14 14 24 63q19 61 52.5 131.5t62.5 102.5q7 10 16 18.5t14 12.5l5 3q-2 -2 0 -22t-1.5 -58t-8 -82.5t-18.5 -95t-33 -95t-52 -83t-74 -59.5zM391 1223.5q0 25.5 12 50.5 q28 57 58 47q47 -13 47 -84q0 -22 -32 -44.5t-68 -21.5q-5 0 -11 13.5t-6 39z" />
<glyph unicode="&#xe6;" horiz-adv-x="1341" d="M47 219q3 -91 125 -156q24 -9 57 -15t77 -3.5t75 18.5q33 12 66 47t55 80l22 41q5 0 9 -7.5t4 -16.5q30 -69 48 -92t50 -35q44 -13 92.5 -4.5t52.5 33.5q6 13 -2 45q50 -37 96 -52q73 -30 156 -34t139 16.5t56 58.5q0 13 -22.5 35.5t-47.5 36.5q-3 1 -36.5 1.5t-68.5 6 t-75.5 19.5t-71.5 48t-41 85q-5 19 -3 21.5t22 2.5q19 2 39.5 5.5t59.5 15.5t74 29t75.5 48.5t71 71.5t54 100.5t31.5 133.5q-3 19 -8 36.5t-17 41.5t-28.5 42.5t-45 34.5t-63.5 23t-86 2.5t-112 -22.5q-146 -55 -234 -205q-8 25 -28 45q-18 17 -19.5 23.5t8.5 17.5 q37 72 -63 116q-32 16 -82 18.5t-82 -7.5q-33 -12 -62 -35t-88 -82q-18 -18 -41 -46.5t-59 -89.5t-64 -129.5t-47.5 -167t-17.5 -200.5zM268 248q-11 -6 0 91q6 55 13 73q14 14 24 63q19 61 52.5 131.5t62.5 102.5q7 10 16 18.5t14 12.5l5 3q-2 -2 0 -22t-1.5 -58t-8 -82.5 t-18.5 -95t-33 -95t-52 -83t-74 -59.5zM868 573q27 72 39 103q17 27 51.5 68t53.5 53l24 18q30 27 21 -18q0 -58 -72 -133q-24 -27 -68 -61.5t-49 -29.5z" />
<glyph unicode="&#xe7;" horiz-adv-x="798" d="M49 306.5q3 -104.5 55 -165.5q55 -55 144 -84q-39 -51 -39 -120q0 -40 31 -69t106 -58q20 -5 39 -12.5t36 -20t12.5 -29t-34.5 -33.5q-8 -8 -40.5 -22t-63.5 -21q-159 -47 -33 -127q44 -25 108 -21.5t124 23t106 57t53 79.5q7 63 -37 127t-122 104q-14 4 -27 12.5 t-19 14.5l-6 6q1 22 11 53q8 29 10 39q103 14 174 53q76 43 82 92t-62 86q-36 12 -72 13t-61 -13q-33 -17 -51 -25t-52.5 -19.5t-61.5 -9.5t-48 17q-11 20 -9.5 83.5t15.5 109.5q27 133 121 262q102 135 121 135q3 0 9 -2t16 -6t18 -6q25 -14 66 -15.5t55 9.5 q15 11 18.5 38.5t-6.5 53.5q-3 15 -18 33.5t-43.5 37t-79.5 29t-113 6.5q-95 -23 -178 -106q-85 -74 -164 -213q-41 -86 -67 -178.5t-23 -197z" />
<glyph unicode="&#xe8;" horiz-adv-x="761" d="M49.5 538.5q-3.5 -46.5 4 -116t30 -133t77.5 -121.5t136 -86q73 -30 156 -34t138.5 16.5t55.5 58.5q0 13 -22 35.5t-47 36.5q-3 1 -36.5 1.5t-68.5 6t-75.5 19t-71.5 47.5t-41 85q-5 22 -2 23q3 2 20 2q19 2 39.5 5.5t60 15.5t74 28.5t75.5 48t71.5 71.5t54 100.5 t31.5 133.5q-3 19 -8 36.5t-17 41.5t-29 42.5t-45 34.5t-63.5 23t-86.5 2.5t-112 -22.5q-98 -36 -173.5 -121t-113.5 -207q-8 -27 -11.5 -73.5zM142 1361q0 -28 14 -56q29 -63 115 -124.5t179.5 -99t165.5 -45.5q21 2 38.5 11t25.5 23.5t5.5 32t-23.5 37.5t-60 38 q-159 72 -311 217q-25 20 -68.5 17.5t-66.5 -17.5q-14 -6 -14 -34zM291 553q27 71 39 102q18 27 51.5 68t52.5 53l25 19q15 13 20 8.5t0 -27.5q0 -59 -71 -133q-24 -27 -68 -61t-49 -29z" />
<glyph unicode="&#xe9;" horiz-adv-x="761" d="M49.5 538.5q-3.5 -46.5 4 -116t30 -133t77.5 -121.5t136 -86q73 -30 156 -34t138.5 16.5t55.5 58.5q0 13 -22 35.5t-47 36.5q-3 1 -36.5 1.5t-68.5 6t-75.5 19t-71.5 47.5t-41 85q-5 22 -2 23q3 2 20 2q19 2 39.5 5.5t60 15.5t74 28.5t75.5 48t71.5 71.5t54 100.5 t31.5 133.5q-3 19 -8 36.5t-17 41.5t-29 42.5t-45 34.5t-63.5 23t-86.5 2.5t-112 -22.5q-98 -36 -173.5 -121t-113.5 -207q-8 -27 -11.5 -73.5zM127.5 1077.5q3.5 -8.5 17.5 -22.5q53 -28 123.5 -18.5t139.5 35.5t132 62.5t100.5 62.5t45.5 34q25 38 0 77.5t-65 37.5 q-39 -2 -70 -14.5t-158 -78.5q-220 -115 -239 -129q-16 -11 -25 -24q-5 -14 -1.5 -22.5zM291 553q27 71 39 102q18 27 51.5 68t52.5 53l25 19q15 13 20 8.5t0 -27.5q0 -59 -71 -133q-24 -27 -68 -61t-49 -29z" />
<glyph unicode="&#xea;" horiz-adv-x="815" d="M49.5 538.5q-3.5 -46.5 4 -116t30 -133t77.5 -121.5t136 -86q73 -30 156 -34t138.5 16.5t55.5 58.5q0 13 -22 35.5t-47 36.5q-3 1 -36.5 1.5t-68.5 6t-75.5 19t-71.5 47.5t-41 85q-5 22 -2 23q3 2 20 2q19 2 39.5 5.5t60 15.5t74 28.5t75.5 48t71.5 71.5t54 100.5 t31.5 133.5q-3 19 -8 36.5t-17 41.5t-29 42.5t-45 34.5t-63.5 23t-86.5 2.5t-112 -22.5q-98 -36 -173.5 -121t-113.5 -207q-8 -27 -11.5 -73.5zM86 1108q-2 -11 6 -22.5t21 -21t40.5 -16.5t65.5 -8q16 5 69 63.5t98 114.5l44 56q4 4 46 -37.5t65 -73.5q38 -45 66.5 -61.5 t74.5 -16.5q124 0 55 101q-5 9 -39 49.5t-83 93.5t-106.5 95t-96.5 44h-52q-38 -17 -96 -106q-23 -25 -94.5 -119.5t-79.5 -114.5q-2 -9 -4 -20zM291 553q27 71 39 102q18 27 51.5 68t52.5 53l25 19q15 13 20 8.5t0 -27.5q0 -59 -71 -133q-24 -27 -68 -61t-49 -29z" />
<glyph unicode="&#xeb;" horiz-adv-x="761" d="M49.5 538.5q-3.5 -46.5 4 -116t30 -133t77.5 -121.5t136 -86q73 -30 156 -34t138.5 16.5t55.5 58.5q0 13 -22 35.5t-47 36.5q-3 1 -36.5 1.5t-68.5 6t-75.5 19t-71.5 47.5t-41 85q-5 22 -2 23q3 2 20 2q19 2 39.5 5.5t60 15.5t74 28.5t75.5 48t71.5 71.5t54 100.5 t31.5 133.5q-3 19 -8 36.5t-17 41.5t-29 42.5t-45 34.5t-63.5 23t-86.5 2.5t-112 -22.5q-98 -36 -173.5 -121t-113.5 -207q-8 -27 -11.5 -73.5zM146 1187q0 -47 14 -67q21 -32 38 -42q31 -19 89 -13q45 8 66 53t-3 92q-6 12 -13 20.5t-12.5 14.5t-15.5 10t-14 6.5t-17 3.5 t-16 1h-19.5h-19.5q-44 0 -63 -19q-14 -13 -14 -60zM291 553q27 71 39 102q18 27 51.5 68t52.5 53l25 19q15 13 20 8.5t0 -27.5q0 -59 -71 -133q-24 -27 -68 -61t-49 -29zM465 1166.5q-4 -41.5 24 -70.5t80 -25q42 0 69.5 15.5t33.5 43.5q18 48 7 73t-54 46q-33 14 -69 12 t-56 -22q-31 -31 -35 -72.5z" />
<glyph unicode="&#xec;" horiz-adv-x="413" d="M-204 1240q0 -28 14 -56q29 -63 115 -124.5t179.5 -99t165.5 -45.5q21 2 38.5 11t25.5 23.5t5.5 32t-23.5 37.5t-60 38q-159 72 -311 217q-25 20 -68.5 17.5t-66.5 -17.5q-14 -6 -14 -34zM-63 655q0 -105 14.5 -284t32.5 -248q22 -66 84 -98q14 -3 36.5 -5t53.5 -0.5 t54 15t26 39.5q2 44 1 55t-11 45.5t-15 61.5q-8 46 -21 166t-14 124q-13 112 -23 161.5t-21 68.5t-36 35q-24 11 -67.5 13.5t-63.5 -7.5q-38 -21 -30 -142z" />
<glyph unicode="&#xed;" horiz-adv-x="409" d="M-251.5 1028.5q3.5 -7.5 18.5 -22.5q53 -28 123.5 -18.5t139 35.5t131.5 62.5t100.5 62.5t45.5 34q25 38 0 77t-65 37t-71.5 -14.5t-156.5 -77.5q-220 -115 -239 -129q-16 -11 -25 -24q-5 -15 -1.5 -22.5zM-90 655q0 -105 14.5 -284t32.5 -248q22 -66 84 -98 q14 -3 36.5 -5t53.5 -0.5t54 15t26 39.5q2 44 1 55t-11 45.5t-15 61.5q-8 46 -20.5 165t-13.5 125q-13 112 -23 161.5t-21 68.5t-36 35q-24 11 -67.5 13.5t-63.5 -7.5q-39 -22 -31 -142z" />
<glyph unicode="&#xee;" horiz-adv-x="405" d="M-381 967q-2 -11 6 -22.5t21 -21t40.5 -16.5t65.5 -8q16 5 69 63.5t97 114.5l45 56q2 2 11 -5t22 -19.5t27 -27t28 -31t23 -28.5q38 -45 66.5 -61.5t74.5 -16.5q123 0 55 100q-5 9 -39 50t-83 94t-106.5 95t-96.5 44q-12 1 -23 1t-19 -0.5t-9 -0.5q-39 -17 -97 -106 q-23 -25 -94.5 -119.5t-79.5 -114.5q-2 -9 -4 -20zM-154 655q0 -104 15 -283.5t33 -248.5q22 -67 83 -98q14 -3 36.5 -5t53.5 -0.5t54 15t26 39.5q2 44 1.5 55t-10.5 45.5t-15 61.5q-8 46 -21 166t-14 124q-13 112 -23 161.5t-21 68.5t-36 35q-24 11 -67.5 13.5t-63.5 -7.5 q-39 -22 -31 -142z" />
<glyph unicode="&#xef;" horiz-adv-x="409" d="M-254 1085q0 -47 14 -67q21 -32 38 -42q31 -19 89 -13q45 8 66.5 53t-2.5 92q-6 12 -13 20.5t-12.5 14.5t-15 10t-14.5 6t-16.5 3t-16.5 1h-19.5h-19.5q-46 0 -64 -18q-14 -13 -14 -60zM-90 655q0 -105 14.5 -284t32.5 -248q22 -66 84 -98q14 -3 36.5 -5t53.5 -0.5t54 15 t26 39.5q2 44 1 55t-11 45.5t-15 61.5q-8 46 -20.5 165t-13.5 125q-13 112 -23 161.5t-21 68.5t-36 35q-24 11 -67.5 13.5t-63.5 -7.5q-39 -22 -31 -142zM65.5 1064.5q-3.5 -41.5 24.5 -70.5t80 -25q41 0 68.5 15.5t33.5 43.5q18 48 7 73t-54 46q-33 14 -69 12t-56 -22 q-31 -31 -34.5 -72.5z" />
<glyph unicode="&#xf0;" horiz-adv-x="870" d="M52.5 515.5q-3.5 -53.5 3 -118.5t40 -128.5t90.5 -98.5q71 -45 109 -57q99 -31 217 24q286 170 223 582q-9 63 -37 151t-49 121q-18 36 -18 43q24 8 51 8q62 6 90 15t39 28q24 41 -35 78q-69 36 -153 25q-12 -4 -25 -6t-20 -2h-7q-6 19 -38.5 71t-55.5 82q-44 44 -91 58 t-79 -7q-20 -20 -17.5 -45t34.5 -108q18 -29 30.5 -58t12.5 -36q-33 -17 -68 -25q-56 -16 -89 -29.5t-51 -27t-17.5 -27t12.5 -29.5q49 -72 213 -32q35 16 67 16q27 -60 27 -68q-16 -8 -51 -8q-105 -12 -204.5 -100.5t-137.5 -208.5q-12 -29 -15.5 -82.5zM275 380 q-15 79 12 165t88 131q8 6 25.5 20.5t31.5 25.5t30 23t26.5 18.5t15.5 6.5q8 -27 8 -43q12 -83 0.5 -168t-43.5 -149q-21 -39 -69 -91.5t-60 -46.5q-50 29 -65 108z" />
<glyph unicode="&#xf1;" horiz-adv-x="874" d="M30.5 1242q1.5 -20 16.5 -36q43 -43 100 -43q17 0 57.5 30t65.5 28q26 -2 75 -49.5t67 -55.5q18 -12 47 -21.5t75 -8.5t87 22q73 39 119.5 103.5t19.5 103.5q0 1 -4.5 8.5t-7 11t-8.5 11t-12 10.5t-14.5 7.5t-19 3.5t-23 -3.5t-28 -11t-33.5 -21.5q-6 -5 -16.5 -18 t-20 -24.5t-25.5 -23.5t-32 -13.5t-39 3.5q-24 8 -38.5 23t-20 29t-22.5 30.5t-44 28.5q-29 15 -69.5 22t-77.5 1q-33 -6 -66 -22t-56 -37t-38.5 -44.5t-14 -43.5zM52 492q0 -352 11 -367q1 -1 5.5 -7.5t6 -9t8 -9.5t10.5 -9.5t14 -9t18 -7t22.5 -5.5t28 -3t33.5 1 q39 12 54.5 29t29.5 79q6 26 16 100t22 141t30 137.5t48 115t68 47.5q11 -9 16.5 -20.5t9 -34t5 -46.5t6.5 -72.5t12 -97.5q24 -218 36 -254q5 -15 11 -24q9 -13 24 -26.5t43.5 -30t68.5 -12t82 35.5q10 10 11 17.5t1 42.5q-1 6 -18.5 135t-33.5 239.5t-22 134.5 q-76 296 -305 277q-58 -13 -123 -88q-32 -32 -37 -35t-16 2q-40 40 -105.5 41t-79.5 -35q-11 -20 -11 -372z" />
<glyph unicode="&#xf2;" horiz-adv-x="802" d="M51.5 331.5q2.5 -29.5 5.5 -62.5t19 -67.5t39 -61.5t64.5 -44.5t96.5 -17.5q38 -6 85 -0.5t104.5 29t108.5 62.5t95.5 109.5t67.5 161.5q13 60 13 140t-13 129q-16 52 -33.5 89t-47.5 74t-70.5 60t-102 38t-141.5 17q-43 -14 -77.5 -49.5t-78.5 -116.5 q-124 -207 -133 -442q-4 -18 -1.5 -47.5zM130 1414q0 -28 13 -56q29 -63 115 -124.5t180 -98.5t166 -45q21 2 38.5 11t25.5 23.5t5.5 31.5t-23.5 37t-60 38q-159 72 -311 217q-25 20 -69 17.5t-67 -17.5q-13 -6 -13 -34zM278.5 392.5q0.5 59.5 12.5 107.5q23 97 77 201 t78 104q13 0 19 -6q37 -46 47.5 -139.5t-12.5 -170.5q-3 -9 -9 -31t-10 -34t-12.5 -33t-17 -34t-22.5 -30.5t-30.5 -28.5t-40 -22t-51.5 -18q-12 -3 -20.5 36t-8 98.5z" />
<glyph unicode="&#xf3;" horiz-adv-x="802" d="M51.5 331.5q2.5 -29.5 5.5 -62.5t19 -67.5t39 -61.5t64.5 -44.5t96.5 -17.5q38 -6 85 -0.5t104.5 29t108.5 62.5t95.5 109.5t67.5 161.5q13 60 13 140t-13 129q-16 52 -33.5 89t-47.5 74t-70.5 60t-102 38t-141.5 17q-43 -14 -77.5 -49.5t-78.5 -116.5 q-124 -207 -133 -442q-4 -18 -1.5 -47.5zM117.5 1132.5q3.5 -8.5 17.5 -22.5q53 -28 123.5 -18.5t139.5 35.5t132 62.5t100.5 62.5t45.5 34q25 38 -0.5 77.5t-65.5 37.5q-39 -2 -70 -14t-157 -78q-219 -115 -241 -131q-14 -10 -23 -23q-5 -14 -1.5 -22.5zM278.5 392.5 q0.5 59.5 12.5 107.5q23 97 77 201t78 104q13 0 19 -6q37 -46 47.5 -139.5t-12.5 -170.5q-3 -9 -9 -31t-10 -34t-12.5 -33t-17 -34t-22.5 -30.5t-30.5 -28.5t-40 -22t-51.5 -18q-12 -3 -20.5 36t-8 98.5z" />
<glyph unicode="&#xf4;" horiz-adv-x="813" d="M51.5 331.5q2.5 -29.5 5.5 -62.5t19 -67.5t39 -61.5t64.5 -44.5t96.5 -17.5q38 -6 85 -0.5t104.5 29t108.5 62.5t95.5 109.5t67.5 161.5q13 60 13 140t-13 129q-16 52 -33.5 89t-47.5 74t-70.5 60t-102 38t-141.5 17q-43 -14 -77.5 -49.5t-78.5 -116.5 q-124 -207 -133 -442q-4 -18 -1.5 -47.5zM86 1102q-2 -11 6 -22.5t21 -21t40.5 -16.5t65.5 -8q16 5 69 63.5t98 114.5l44 56q1 1 6.5 -2t13 -10t17 -16t20 -19.5t20 -21.5l19 -22t15.5 -20q38 -45 66.5 -61.5t74.5 -16.5q124 0 55 101q-5 9 -39 49.5t-83 93.5t-106.5 95 t-96.5 44h-52q-38 -17 -96 -106q-23 -25 -94.5 -119.5t-79.5 -114.5q-2 -9 -4 -20zM278.5 392.5q0.5 59.5 12.5 107.5q23 97 77 201t78 104q13 0 19 -6q37 -46 47.5 -139.5t-12.5 -170.5q-3 -9 -9 -31t-10 -34t-12.5 -33t-17 -34t-22.5 -30.5t-30.5 -28.5t-40 -22t-51.5 -18 q-12 -3 -20.5 36t-8 98.5z" />
<glyph unicode="&#xf5;" horiz-adv-x="864" d="M51.5 331.5q2.5 -29.5 5.5 -62.5t19 -67.5t39 -61.5t64.5 -44.5t96.5 -17.5q38 -6 85 -0.5t104.5 29t108.5 62.5t95.5 109.5t67.5 161.5q13 60 13 140t-13 129q-16 52 -33.5 89t-47.5 74t-70.5 60t-102 38t-141.5 17q-43 -14 -77.5 -49.5t-78.5 -116.5 q-124 -207 -133 -442q-4 -18 -1.5 -47.5zM75.5 1236q1.5 -20 16.5 -36q43 -43 101 -43q17 0 57 29.5t65 27.5q26 -2 75 -49t67 -55q18 -12 47 -21.5t75 -8.5t87 22q73 39 119.5 103.5t19.5 103.5q0 1 -4.5 8.5t-7 11t-8.5 11t-12 10.5t-14.5 7.5t-19 3.5t-23 -3.5t-28 -11 t-33.5 -21.5q-6 -5 -16.5 -18t-20 -24.5t-25.5 -23.5t-32 -13.5t-39 3.5q-24 8 -38.5 23t-20 29t-22.5 30.5t-44 28.5q-65 35 -147 22q-33 -6 -66 -22t-56 -36.5t-38.5 -44t-14 -43.5zM278.5 392.5q0.5 59.5 12.5 107.5q23 97 77 201t78 104q13 0 19 -6q37 -46 47.5 -139.5 t-12.5 -170.5q-3 -9 -9 -31t-10 -34t-12.5 -33t-17 -34t-22.5 -30.5t-30.5 -28.5t-40 -22t-51.5 -18q-12 -3 -20.5 36t-8 98.5z" />
<glyph unicode="&#xf6;" horiz-adv-x="802" d="M51.5 331.5q2.5 -29.5 5.5 -62.5t19 -67.5t39 -61.5t64.5 -44.5t96.5 -17.5q38 -6 85 -0.5t104.5 29t108.5 62.5t95.5 109.5t67.5 161.5q13 60 13 140t-13 129q-16 52 -33.5 89t-47.5 74t-70.5 60t-102 38t-141.5 17q-43 -14 -77.5 -49.5t-78.5 -116.5 q-124 -207 -133 -442q-4 -18 -1.5 -47.5zM144 1213.5q0 -46.5 14 -66.5q21 -32 38 -42q31 -19 89 -13q45 8 66 53t-3 92q-6 12 -13 20.5t-12.5 14.5t-15 10t-14.5 6t-16.5 3t-16.5 1h-19.5h-19.5q-45 0 -63 -18q-14 -14 -14 -60.5zM278.5 392.5q0.5 59.5 12.5 107.5 q23 97 77 201t78 104q13 0 19 -6q37 -46 47.5 -139.5t-12.5 -170.5q-3 -9 -9 -31t-10 -34t-12.5 -33t-17 -34t-22.5 -30.5t-30.5 -28.5t-40 -22t-51.5 -18q-12 -3 -20.5 36t-8 98.5zM463 1193.5q-4 -41.5 24 -70.5t80 -25q42 0 69.5 15.5t33.5 43.5q18 48 7 73t-54 46 q-33 14 -69 12t-56 -22q-31 -31 -35 -72.5z" />
<glyph unicode="&#xf7;" horiz-adv-x="884" d="M93.5 597.5q2.5 -15.5 13.5 -26.5t34 -26q73 -38 351 8q134 25 239 25q90 0 118 9.5t28 41.5q0 21 -26.5 46.5t-57.5 31.5q-28 6 -123 10t-135 -2q-3 0 -19.5 -4.5t-43 -11t-48.5 -9.5q-25 -4 -98.5 -17.5t-98.5 -17.5q-105 -10 -121 -26q-15 -16 -12.5 -31.5zM346 817 q25 -37 91.5 -50.5t97.5 7.5q24 48 24 74q0 96 -108 96q-12 0 -27 -5t-22 -8.5t-26 -15.5l-20 -12q-34 -45 -10 -86zM365 411.5q-16 -30.5 8 -73.5q34 -72 102 -72q55 0 89 42q37 47 5 104q-21 28 -55 44.5t-65 10.5q-68 -25 -84 -55.5z" />
<glyph unicode="&#xf9;" horiz-adv-x="886" d="M52.5 519q-7.5 -173 2.5 -267q10 -74 24.5 -110.5t47.5 -75.5q100 -84 274 -46q42 22 73.5 58.5t70.5 107.5l14 23q6 0 29 -23q28 -39 77.5 -61t102.5 -16q41 0 59.5 34.5t-16.5 71.5q-20 20 -37 56t-32.5 100.5t-9.5 170t36 234.5q10 75 10 90.5t-10 32.5 q-22 38 -72 57.5t-100 8.5q-28 -11 -39.5 -26.5t-17.5 -53.5q-8 -69 -21.5 -142t-41 -185.5t-73.5 -194.5t-102 -105q-7 -4 -9.5 88.5t0 214.5t9.5 195q11 118 10 155t-18 54q-27 27 -81.5 32.5t-70.5 -12.5q-17 -17 -34.5 -72.5t-28.5 -121.5q-18 -99 -25.5 -272zM170 1424 q0 -28 14 -56q29 -63 115 -124.5t180 -98.5t166 -45q21 2 38.5 11t25.5 23.5t5.5 31.5t-23.5 37t-60 38q-161 73 -312 217q-25 20 -68.5 17.5t-66.5 -17.5q-14 -6 -14 -34z" />
<glyph unicode="&#xfa;" horiz-adv-x="886" d="M52.5 519q-7.5 -173 2.5 -267q10 -74 24.5 -110.5t47.5 -75.5q100 -84 274 -46q42 22 73.5 58.5t70.5 107.5l14 23q6 0 29 -23q28 -39 77.5 -61t102.5 -16q41 0 59.5 34.5t-16.5 71.5q-20 20 -37 56t-32.5 100.5t-9.5 170t36 234.5q10 75 10 90.5t-10 32.5 q-22 38 -72 57.5t-100 8.5q-28 -11 -39.5 -26.5t-17.5 -53.5q-8 -69 -21.5 -142t-41 -185.5t-73.5 -194.5t-102 -105q-7 -4 -9.5 88.5t0 214.5t9.5 195q11 118 10 155t-18 54q-27 27 -81.5 32.5t-70.5 -12.5q-17 -17 -34.5 -72.5t-28.5 -121.5q-18 -99 -25.5 -272z M158.5 1142.5q3.5 -8.5 17.5 -22.5q53 -28 123.5 -18.5t139.5 35.5t132 62.5t100.5 62.5t45.5 34q25 38 -0.5 77.5t-65.5 37.5q-39 -2 -70 -14t-157 -78q-219 -115 -241 -131q-14 -10 -23 -23q-5 -14 -1.5 -22.5z" />
<glyph unicode="&#xfb;" horiz-adv-x="886" d="M52.5 519q-7.5 -173 2.5 -267q10 -74 24.5 -110.5t47.5 -75.5q100 -84 274 -46q42 22 73.5 58.5t70.5 107.5l14 23q6 0 29 -23q28 -39 77.5 -61t102.5 -16q41 0 59.5 34.5t-16.5 71.5q-20 20 -37 56t-32.5 100.5t-9.5 170t36 234.5q10 75 10 90.5t-10 32.5 q-22 38 -72 57.5t-100 8.5q-28 -11 -39.5 -26.5t-17.5 -53.5q-8 -69 -21.5 -142t-41 -185.5t-73.5 -194.5t-102 -105q-7 -4 -9.5 88.5t0 214.5t9.5 195q11 118 10 155t-18 54q-27 27 -81.5 32.5t-70.5 -12.5q-17 -17 -34.5 -72.5t-28.5 -121.5q-18 -99 -25.5 -272zM102 1168 q-2 -11 6 -22.5t21 -21t41 -16.5t66 -8q16 5 68.5 63.5t97.5 114.5l44 55q3 3 24 -15.5t46.5 -46t40.5 -48.5q38 -45 66.5 -61.5t74.5 -16.5q124 0 56 100q-5 9 -39 50t-83.5 94t-107 95t-96.5 44h-51q-37 -16 -96 -107q-24 -26 -95.5 -119.5t-79.5 -113.5q-2 -9 -4 -20z " />
<glyph unicode="&#xfc;" horiz-adv-x="886" d="M52.5 519q-7.5 -173 2.5 -267q10 -74 24.5 -110.5t47.5 -75.5q100 -84 274 -46q42 22 73.5 58.5t70.5 107.5l14 23q6 0 29 -23q28 -39 77.5 -61t102.5 -16q41 0 59.5 34.5t-16.5 71.5q-20 20 -37 56t-32.5 100.5t-9.5 170t36 234.5q10 75 10 90.5t-10 32.5 q-22 38 -72 57.5t-100 8.5q-28 -11 -39.5 -26.5t-17.5 -53.5q-8 -69 -21.5 -142t-41 -185.5t-73.5 -194.5t-102 -105q-7 -4 -9.5 88.5t0 214.5t9.5 195q11 118 10 155t-18 54q-27 27 -81.5 32.5t-70.5 -12.5q-17 -17 -34.5 -72.5t-28.5 -121.5q-18 -99 -25.5 -272z M172 1223.5q0 -46.5 14 -66.5q21 -32 38 -42q31 -19 89 -13q45 8 66.5 53t-2.5 92q-6 12 -13 20.5t-12.5 14.5t-15.5 10t-14 6.5t-17 3.5t-16 1h-19.5h-19.5q-45 0 -64 -19q-14 -14 -14 -60.5zM491.5 1203.5q-3.5 -41.5 24.5 -70.5t80 -25q41 0 68.5 15.5t33.5 43.5 q18 48 7 73t-54 46q-33 14 -69 12t-56 -22q-31 -31 -34.5 -72.5z" />
<glyph unicode="&#xfd;" horiz-adv-x="909" d="M55 608q0 -215 40.5 -324.5t131.5 -154.5q17 -11 40.5 -20t63.5 -14t79 3t85 41.5t83 91.5q4 6 8 13l4 6v-1l4 -1q3 -13 3 -87.5t-6 -171t-13 -116.5q-4 -10 -11.5 -33.5t-12.5 -35.5t-19 -30.5t-32.5 -29t-51.5 -20.5t-78 -15q-102 -11 -139 -29.5t-25 -56.5 q43 -81 223 -92q52 -5 106.5 3.5t113 38.5t104 78.5t74.5 132.5t30 191q6 115 -9.5 356t-41.5 455q-6 58 -48.5 93.5t-107.5 35.5q-59 0 -84.5 -21.5t-25.5 -72.5q0 -18 -8 -70t-25 -123t-39.5 -135t-55.5 -106t-69 -37q-21 3 -31.5 42t-11 117.5t1 122.5t6.5 130 q3 30 3.5 55.5t-0.5 38.5t-2 23.5t-1 11.5q-20 38 -91 53t-97 -12q-35 -35 -45 -88q-5 -13 -8.5 -24t-6.5 -19.5t-4.5 -21.5t-2.5 -20t-1 -27v-31v-42.5v-50.5zM174.5 1093.5q3.5 -7.5 18.5 -22.5q53 -28 123.5 -18.5t139 35.5t131.5 62.5t100.5 62.5t45.5 34q25 38 0 77.5 t-65 37.5t-71.5 -14.5t-156.5 -77.5q-219 -115 -241 -131q-14 -10 -23 -23q-5 -15 -1.5 -22.5z" />
<glyph unicode="&#xff;" horiz-adv-x="909" d="M55 608q0 -215 40.5 -324.5t131.5 -154.5q17 -11 40.5 -20t63.5 -14t79 3t85 41.5t83 91.5q4 6 8 13l4 6v-1l4 -1q3 -13 3 -87.5t-6 -171t-13 -116.5q-4 -10 -11.5 -33.5t-12.5 -35.5t-19 -30.5t-32.5 -29t-51.5 -20.5t-78 -15q-102 -11 -139 -29.5t-25 -56.5 q43 -81 223 -92q52 -5 106.5 3.5t113 38.5t104 78.5t74.5 132.5t30 191q6 115 -9.5 356t-41.5 455q-6 58 -48.5 93.5t-107.5 35.5q-59 0 -84.5 -21.5t-25.5 -72.5q0 -18 -8 -70t-25 -123t-39.5 -135t-55.5 -106t-69 -37q-21 3 -31.5 42t-11 117.5t1 122.5t6.5 130 q3 30 3.5 55.5t-0.5 38.5t-2 23.5t-1 11.5q-20 38 -91 53t-97 -12q-35 -35 -45 -88q-5 -13 -8.5 -24t-6.5 -19.5t-4.5 -21.5t-2.5 -20t-1 -27v-31v-42.5v-50.5zM190 1175q0 -47 13 -67q21 -32 38 -42q31 -19 89 -13q45 8 66 53t-3 92q-6 12 -13 20.5t-12.5 14.5t-15 10 t-14.5 6t-16.5 3t-16.5 1h-19.5h-19.5q-45 0 -63 -18q-13 -13 -13 -60zM508 1154.5q-4 -41.5 24 -70.5t80 -25q42 0 69.5 15.5t33.5 43.5q18 48 7 73t-54 46q-33 14 -69 12t-56 -22q-31 -31 -35 -72.5z" />
<glyph unicode="&#x178;" horiz-adv-x="997" d="M62 1387q0 -52 67 -193q15 -29 38 -72.5t35.5 -68t16.5 -35.5q126 -202 137 -223q34 -63 38 -125q1 -19 1 -113q-6 -140 2.5 -263.5t22.5 -180.5q19 -60 52 -86.5t93 -26.5q14 0 22 0.5t21.5 4t20.5 10t16 20t12 32.5t3 49t-5 68q-13 92 -21.5 235.5t-2.5 217.5 q0 61 4.5 82.5t19.5 52.5q73 96 226 391q43 92 58.5 132t15.5 64.5t-17 45.5q-24 30 -75 37t-87 -12q-6 -4 -10 -8t-9 -9.5t-8 -9.5t-9 -13.5t-9.5 -16.5t-12 -23t-14.5 -27.5t-18 -36t-22 -43.5q-7 -12 -30 -53t-44.5 -79t-44.5 -77t-37 -59.5t-14 -13.5q0 6 -119.5 211.5 t-130.5 216.5q-31 41 -123 41q-59 6 -59 -43zM238 1671q0 -47 14 -67q22 -33 38 -43q31 -19 89 -13q45 8 66 53.5t-3 92.5q-6 12 -13 20.5t-12.5 14.5t-15 10t-14.5 6t-16.5 3t-16.5 1h-19.5h-19.5q-45 0 -63 -18q-14 -13 -14 -60zM557.5 1649.5q-3.5 -41.5 24.5 -70.5 t80 -25q41 0 68.5 16t33.5 44q18 48 7 73t-54 46q-33 14 -69 11.5t-56 -22.5q-31 -31 -34.5 -72.5z" />
<glyph unicode="&#x2c6;" horiz-adv-x="778" d="M72 1158q-2 -11 6 -22.5t21 -21t40.5 -16.5t65.5 -8q16 5 69 63.5t98 114.5l44 55q4 4 45.5 -37.5t64.5 -73.5q37 -45 66 -61t76 -16q123 0 55 100q-5 9 -39 50t-83.5 94t-107 95t-96.5 44h-51q-37 -16 -96 -107q-24 -25 -95 -119t-79 -114q-2 -9 -4 -20z" />
<glyph unicode="&#x2dc;" horiz-adv-x="839" d="M49 1280.5q0 -21.5 17 -35.5q43 -43 100 -43q17 0 57.5 30t65.5 28q26 -2 74.5 -49.5t66.5 -55.5q18 -12 47 -21.5t75 -8.5t87 22q73 39 119.5 103.5t19.5 103.5q-1 1 -5 8.5t-6.5 11t-8 11t-11.5 11t-14.5 7.5t-19 3t-23 -3.5t-28 -11t-33.5 -21.5q-6 -5 -16.5 -18 t-20 -24.5t-25.5 -23.5t-32 -13.5t-39 3.5q-24 8 -38.5 23t-20 29t-22.5 30.5t-44 28.5q-65 35 -148 22q-33 -6 -65.5 -22t-56 -37t-38 -43.5t-14.5 -44z" />
<glyph unicode="&#x2000;" horiz-adv-x="979" />
<glyph unicode="&#x2001;" horiz-adv-x="1958" />
<glyph unicode="&#x2002;" horiz-adv-x="979" />
<glyph unicode="&#x2003;" horiz-adv-x="1958" />
<glyph unicode="&#x2004;" horiz-adv-x="652" />
<glyph unicode="&#x2005;" horiz-adv-x="489" />
<glyph unicode="&#x2006;" horiz-adv-x="326" />
<glyph unicode="&#x2007;" horiz-adv-x="326" />
<glyph unicode="&#x2008;" horiz-adv-x="244" />
<glyph unicode="&#x2009;" horiz-adv-x="391" />
<glyph unicode="&#x200a;" horiz-adv-x="108" />
<glyph unicode="&#x2010;" horiz-adv-x="716" d="M53.5 533q-1.5 -24 18.5 -50q33 -45 106 -58t242 -1q166 16 190 22q30 9 39 29q39 39 0 78q-27 33 -83 47t-120 2q-32 0 -204 -16q-161 -17 -162 -17q-25 -12 -26.5 -36z" />
<glyph unicode="&#x2011;" horiz-adv-x="716" d="M53.5 533q-1.5 -24 18.5 -50q33 -45 106 -58t242 -1q166 16 190 22q30 9 39 29q39 39 0 78q-27 33 -83 47t-120 2q-32 0 -204 -16q-161 -17 -162 -17q-25 -12 -26.5 -36z" />
<glyph unicode="&#x2012;" horiz-adv-x="716" d="M53.5 533q-1.5 -24 18.5 -50q33 -45 106 -58t242 -1q166 16 190 22q30 9 39 29q39 39 0 78q-27 33 -83 47t-120 2q-32 0 -204 -16q-161 -17 -162 -17q-25 -12 -26.5 -36z" />
<glyph unicode="&#x2013;" horiz-adv-x="907" d="M59 475q1 -3 2 -9q3 -17 8 -26.5t21.5 -23t53.5 -19t94 -2.5q34 2 183.5 8t265 11.5t126.5 9.5q9 5 20 15.5t19.5 26.5t7 31.5t-24 32t-65.5 27.5q-33 11 -178.5 11.5t-267.5 -9.5q-131 -10 -180 -19.5t-68 -27.5q-12 -6 -17 -16t0 -21z" />
<glyph unicode="&#x2014;" horiz-adv-x="1110" d="M59 475q1 -3 2 -9q3 -17 8 -26.5t21.5 -23t53.5 -19t94 -2.5q40 2 236 8.5t363.5 13t178.5 9.5q9 5 20 15.5t19.5 26.5t7 31.5t-24 32t-65.5 27.5q-32 11 -279.5 11t-369.5 -11q-131 -10 -180 -19.5t-68 -27.5q-12 -6 -17 -16t0 -21z" />
<glyph unicode="&#x2018;" horiz-adv-x="448" d="M66 1235q1 -26 8.5 -52t27 -58.5t62 -52.5t102.5 -19q5 1 25.5 6.5t30 8.5t27.5 11.5t27.5 18.5t19.5 26.5t14 38.5q6 32 -13.5 68t-58.5 59q-21 19 -29 28t-15 25.5t1.5 33.5t30.5 40q32 44 37 63.5t-9 43.5q-11 20 -29 34.5t-49.5 21.5t-68.5 -17q-61 -36 -104.5 -136 t-36.5 -192z" />
<glyph unicode="&#x2019;" horiz-adv-x="448" d="M61 1489q-6 -32 13.5 -68t58.5 -59q21 -19 29 -28t15 -25.5t-1.5 -33.5t-30.5 -40q-32 -44 -37 -63.5t9 -43.5q8 -14 20 -26t30.5 -22t43.5 -8t53 18q61 36 105 135.5t37 191.5q-1 20 -5 40t-17.5 47t-34 47.5t-58 34.5t-86.5 13q-5 -1 -25.5 -6.5t-30 -8.5t-27.5 -11.5 t-27.5 -18.5t-19.5 -26.5t-14 -38.5z" />
<glyph unicode="&#x201c;" horiz-adv-x="860" d="M66 1235q1 -26 8.5 -52t27 -58.5t62 -52.5t102.5 -19q5 1 25.5 6.5t30 8.5t27.5 11.5t27.5 18.5t19.5 26.5t14 38.5q6 32 -13.5 68t-58.5 59q-21 19 -29 28t-15 25.5t1.5 33.5t30.5 40q32 44 37 63.5t-9 43.5q-11 20 -29 34.5t-49.5 21.5t-68.5 -17q-61 -36 -104.5 -136 t-36.5 -192zM477 1235q1 -20 5 -40t17.5 -47t34 -47.5t58 -34.5t86.5 -13q5 1 25.5 6.5t30 8.5t27 11.5t27 18.5t19.5 26.5t14 38.5q6 32 -13 68t-58 59q-22 20 -29.5 28.5t-15 25t1 33.5t30.5 40q32 44 37.5 63t-8.5 44q-11 20 -29 34.5t-50 21.5t-69 -17 q-61 -36 -104.5 -136t-36.5 -192z" />
<glyph unicode="&#x201d;" horiz-adv-x="847" d="M61 1489q-6 -32 13.5 -68t58.5 -59q21 -19 29 -28t15 -25.5t-1.5 -33.5t-30.5 -40q-32 -44 -37 -63.5t9 -43.5q8 -14 20 -26t30.5 -22t43.5 -8t53 18q61 36 105 135.5t37 191.5q-1 20 -5 40t-17.5 47t-34 47.5t-58 34.5t-86.5 13q-5 -1 -25.5 -6.5t-30 -8.5t-27.5 -11.5 t-27.5 -18.5t-19.5 -26.5t-14 -38.5zM461 1481q-6 -32 13 -68t58 -59q22 -20 29.5 -28.5t15 -25t-1 -33.5t-30.5 -40q-32 -44 -37.5 -63t8.5 -44q11 -20 29 -34.5t50 -21.5t69 17q61 36 104.5 136t36.5 192q-1 20 -5 40t-17.5 47t-34 47.5t-58 34.5t-86.5 13 q-5 -1 -25.5 -6.5t-30 -8.5t-27 -11.5t-27 -18.5t-19.5 -26.5t-14 -38.5z" />
<glyph unicode="&#x2022;" horiz-adv-x="399" d="M85.5 580.5q-4.5 -56.5 33.5 -96t108 -33.5q57 0 94 21.5t46 59.5q25 66 10 99.5t-74 62.5q-47 19 -95 16t-75 -30q-43 -43 -47.5 -99.5z" />
<glyph unicode="&#x202f;" horiz-adv-x="391" />
<glyph unicode="&#x205f;" horiz-adv-x="489" />
<glyph unicode="&#x20ac;" horiz-adv-x="997" d="M51 774q-13 -24 10 -47q21 -21 103 -27q21 -1 26 -15t0 -28l-6 -14q0 -7 -10 -12.5t-18 -5.5q-57 -14 -69 -45.5t30 -59.5q43 -24 47 -28q7 0 13.5 -11.5t6.5 -25.5q0 -38 17.5 -112.5t38.5 -115.5q20 -46 66 -96t85 -74q12 -7 24 -12.5t49.5 -19t73.5 -19t88.5 -4 t101 17t105 53.5t105.5 97q13 41 -14.5 75t-79.5 48q-43 7 -67.5 -2.5t-74.5 -52.5q-17 -17 -44 -29t-59 -17t-63 6.5t-56 37t-39 79.5t-11 129q-8 70 -3 84t40 21q3 0 28.5 -1t44 -1t49.5 5t58 15q25 8 28.5 11.5t-1.5 17.5q0 29 -50.5 52.5t-119.5 23.5q-53 8 -63.5 11.5 t-10.5 16.5q0 7 2 11t4 5.5t9.5 5t11.5 5.5q120 21 190 21q103 0 103 47q0 27 -19 53.5t-47 40.5q-40 12 -94.5 14t-88.5 -2l-34 -4q0 23 8 60t29 97t72.5 125t125.5 115q16 5 24 1.5t24 -19.5q59 -46 122 -29q27 7 37 25t2 41q-27 70 -109.5 103.5t-183.5 19.5 q-48 0 -88.5 -23t-99.5 -82q-141 -141 -209 -442q-5 -18 -12.5 -27t-14 -11t-30.5 -9q-66 -13 -89.5 -28.5t-23.5 -39.5z" />
<glyph unicode="&#x25fc;" horiz-adv-x="1044" d="M0 0v1044h1044v-1044h-1044z" />
</font>
</defs>
</svg>
